<?xml version="1.0" encoding="utf-8" standalone="no"?>
<!DOCTYPE svg PUBLIC "-//W3C//DTD SVG 1.1//EN"
  "http://www.w3.org/Graphics/SVG/1.1/DTD/svg11.dtd">
<svg xmlns:xlink="http://www.w3.org/1999/xlink" width="460.8pt" height="345.6pt" viewBox="0 0 460.8 345.6" xmlns="http://www.w3.org/2000/svg" version="1.1">
 <metadata>
  <rdf:RDF xmlns:dc="http://purl.org/dc/elements/1.1/" xmlns:cc="http://creativecommons.org/ns#" xmlns:rdf="http://www.w3.org/1999/02/22-rdf-syntax-ns#">
   <cc:Work>
    <dc:type rdf:resource="http://purl.org/dc/dcmitype/StillImage"/>
    <dc:date>2024-10-08T20:54:36.026900</dc:date>
    <dc:format>image/svg+xml</dc:format>
    <dc:creator>
     <cc:Agent>
      <dc:title>Matplotlib v3.9.0, https://matplotlib.org/</dc:title>
     </cc:Agent>
    </dc:creator>
   </cc:Work>
  </rdf:RDF>
 </metadata>
 <defs>
  <style type="text/css">*{stroke-linejoin: round; stroke-linecap: butt}</style>
 </defs>
 <g id="figure_1">
  <g id="patch_1">
   <path d="M 0 345.6 
L 460.8 345.6 
L 460.8 0 
L 0 0 
z
" style="fill: #ffffff"/>
  </g>
  <g id="axes_1">
   <g id="patch_2">
    <path d="M 57.6 307.584 
L 414.72 307.584 
L 414.72 41.472 
L 57.6 41.472 
z
" style="fill: #ffffff"/>
   </g>
   <g id="matplotlib.axis_1">
    <g id="xtick_1">
     <g id="line2d_1">
      <path d="M 73.832727 307.584 
L 73.832727 41.472 
" clip-path="url(#pb44a58f666)" style="fill: none; stroke: #b0b0b0; stroke-width: 0.8; stroke-linecap: square"/>
     </g>
     <g id="line2d_2">
      <defs>
       <path id="m8aa3670211" d="M 0 0 
L 0 3.5 
" style="stroke: #000000; stroke-width: 0.8"/>
      </defs>
      <g>
       <use xlink:href="#m8aa3670211" x="73.832727" y="307.584" style="stroke: #000000; stroke-width: 0.8"/>
      </g>
     </g>
     <g id="text_1">
      <!-- 0 -->
      <g transform="translate(70.651477 322.182437) scale(0.1 -0.1)">
       <defs>
        <path id="DejaVuSans-30" d="M 2034 4250 
Q 1547 4250 1301 3770 
Q 1056 3291 1056 2328 
Q 1056 1369 1301 889 
Q 1547 409 2034 409 
Q 2525 409 2770 889 
Q 3016 1369 3016 2328 
Q 3016 3291 2770 3770 
Q 2525 4250 2034 4250 
z
M 2034 4750 
Q 2819 4750 3233 4129 
Q 3647 3509 3647 2328 
Q 3647 1150 3233 529 
Q 2819 -91 2034 -91 
Q 1250 -91 836 529 
Q 422 1150 422 2328 
Q 422 3509 836 4129 
Q 1250 4750 2034 4750 
z
" transform="scale(0.015625)"/>
       </defs>
       <use xlink:href="#DejaVuSans-30"/>
      </g>
     </g>
    </g>
    <g id="xtick_2">
     <g id="line2d_3">
      <path d="M 127.941818 307.584 
L 127.941818 41.472 
" clip-path="url(#pb44a58f666)" style="fill: none; stroke: #b0b0b0; stroke-width: 0.8; stroke-linecap: square"/>
     </g>
     <g id="line2d_4">
      <g>
       <use xlink:href="#m8aa3670211" x="127.941818" y="307.584" style="stroke: #000000; stroke-width: 0.8"/>
      </g>
     </g>
     <g id="text_2">
      <!-- 5 -->
      <g transform="translate(124.760568 322.182437) scale(0.1 -0.1)">
       <defs>
        <path id="DejaVuSans-35" d="M 691 4666 
L 3169 4666 
L 3169 4134 
L 1269 4134 
L 1269 2991 
Q 1406 3038 1543 3061 
Q 1681 3084 1819 3084 
Q 2600 3084 3056 2656 
Q 3513 2228 3513 1497 
Q 3513 744 3044 326 
Q 2575 -91 1722 -91 
Q 1428 -91 1123 -41 
Q 819 9 494 109 
L 494 744 
Q 775 591 1075 516 
Q 1375 441 1709 441 
Q 2250 441 2565 725 
Q 2881 1009 2881 1497 
Q 2881 1984 2565 2268 
Q 2250 2553 1709 2553 
Q 1456 2553 1204 2497 
Q 953 2441 691 2322 
L 691 4666 
z
" transform="scale(0.015625)"/>
       </defs>
       <use xlink:href="#DejaVuSans-35"/>
      </g>
     </g>
    </g>
    <g id="xtick_3">
     <g id="line2d_5">
      <path d="M 182.050909 307.584 
L 182.050909 41.472 
" clip-path="url(#pb44a58f666)" style="fill: none; stroke: #b0b0b0; stroke-width: 0.8; stroke-linecap: square"/>
     </g>
     <g id="line2d_6">
      <g>
       <use xlink:href="#m8aa3670211" x="182.050909" y="307.584" style="stroke: #000000; stroke-width: 0.8"/>
      </g>
     </g>
     <g id="text_3">
      <!-- 10 -->
      <g transform="translate(175.688409 322.182437) scale(0.1 -0.1)">
       <defs>
        <path id="DejaVuSans-31" d="M 794 531 
L 1825 531 
L 1825 4091 
L 703 3866 
L 703 4441 
L 1819 4666 
L 2450 4666 
L 2450 531 
L 3481 531 
L 3481 0 
L 794 0 
L 794 531 
z
" transform="scale(0.015625)"/>
       </defs>
       <use xlink:href="#DejaVuSans-31"/>
       <use xlink:href="#DejaVuSans-30" x="63.623047"/>
      </g>
     </g>
    </g>
    <g id="xtick_4">
     <g id="line2d_7">
      <path d="M 236.16 307.584 
L 236.16 41.472 
" clip-path="url(#pb44a58f666)" style="fill: none; stroke: #b0b0b0; stroke-width: 0.8; stroke-linecap: square"/>
     </g>
     <g id="line2d_8">
      <g>
       <use xlink:href="#m8aa3670211" x="236.16" y="307.584" style="stroke: #000000; stroke-width: 0.8"/>
      </g>
     </g>
     <g id="text_4">
      <!-- 15 -->
      <g transform="translate(229.7975 322.182437) scale(0.1 -0.1)">
       <use xlink:href="#DejaVuSans-31"/>
       <use xlink:href="#DejaVuSans-35" x="63.623047"/>
      </g>
     </g>
    </g>
    <g id="xtick_5">
     <g id="line2d_9">
      <path d="M 290.269091 307.584 
L 290.269091 41.472 
" clip-path="url(#pb44a58f666)" style="fill: none; stroke: #b0b0b0; stroke-width: 0.8; stroke-linecap: square"/>
     </g>
     <g id="line2d_10">
      <g>
       <use xlink:href="#m8aa3670211" x="290.269091" y="307.584" style="stroke: #000000; stroke-width: 0.8"/>
      </g>
     </g>
     <g id="text_5">
      <!-- 20 -->
      <g transform="translate(283.906591 322.182437) scale(0.1 -0.1)">
       <defs>
        <path id="DejaVuSans-32" d="M 1228 531 
L 3431 531 
L 3431 0 
L 469 0 
L 469 531 
Q 828 903 1448 1529 
Q 2069 2156 2228 2338 
Q 2531 2678 2651 2914 
Q 2772 3150 2772 3378 
Q 2772 3750 2511 3984 
Q 2250 4219 1831 4219 
Q 1534 4219 1204 4116 
Q 875 4013 500 3803 
L 500 4441 
Q 881 4594 1212 4672 
Q 1544 4750 1819 4750 
Q 2544 4750 2975 4387 
Q 3406 4025 3406 3419 
Q 3406 3131 3298 2873 
Q 3191 2616 2906 2266 
Q 2828 2175 2409 1742 
Q 1991 1309 1228 531 
z
" transform="scale(0.015625)"/>
       </defs>
       <use xlink:href="#DejaVuSans-32"/>
       <use xlink:href="#DejaVuSans-30" x="63.623047"/>
      </g>
     </g>
    </g>
    <g id="xtick_6">
     <g id="line2d_11">
      <path d="M 344.378182 307.584 
L 344.378182 41.472 
" clip-path="url(#pb44a58f666)" style="fill: none; stroke: #b0b0b0; stroke-width: 0.8; stroke-linecap: square"/>
     </g>
     <g id="line2d_12">
      <g>
       <use xlink:href="#m8aa3670211" x="344.378182" y="307.584" style="stroke: #000000; stroke-width: 0.8"/>
      </g>
     </g>
     <g id="text_6">
      <!-- 25 -->
      <g transform="translate(338.015682 322.182437) scale(0.1 -0.1)">
       <use xlink:href="#DejaVuSans-32"/>
       <use xlink:href="#DejaVuSans-35" x="63.623047"/>
      </g>
     </g>
    </g>
    <g id="xtick_7">
     <g id="line2d_13">
      <path d="M 398.487273 307.584 
L 398.487273 41.472 
" clip-path="url(#pb44a58f666)" style="fill: none; stroke: #b0b0b0; stroke-width: 0.8; stroke-linecap: square"/>
     </g>
     <g id="line2d_14">
      <g>
       <use xlink:href="#m8aa3670211" x="398.487273" y="307.584" style="stroke: #000000; stroke-width: 0.8"/>
      </g>
     </g>
     <g id="text_7">
      <!-- 30 -->
      <g transform="translate(392.124773 322.182437) scale(0.1 -0.1)">
       <defs>
        <path id="DejaVuSans-33" d="M 2597 2516 
Q 3050 2419 3304 2112 
Q 3559 1806 3559 1356 
Q 3559 666 3084 287 
Q 2609 -91 1734 -91 
Q 1441 -91 1130 -33 
Q 819 25 488 141 
L 488 750 
Q 750 597 1062 519 
Q 1375 441 1716 441 
Q 2309 441 2620 675 
Q 2931 909 2931 1356 
Q 2931 1769 2642 2001 
Q 2353 2234 1838 2234 
L 1294 2234 
L 1294 2753 
L 1863 2753 
Q 2328 2753 2575 2939 
Q 2822 3125 2822 3475 
Q 2822 3834 2567 4026 
Q 2313 4219 1838 4219 
Q 1578 4219 1281 4162 
Q 984 4106 628 3988 
L 628 4550 
Q 988 4650 1302 4700 
Q 1616 4750 1894 4750 
Q 2613 4750 3031 4423 
Q 3450 4097 3450 3541 
Q 3450 3153 3228 2886 
Q 3006 2619 2597 2516 
z
" transform="scale(0.015625)"/>
       </defs>
       <use xlink:href="#DejaVuSans-33"/>
       <use xlink:href="#DejaVuSans-30" x="63.623047"/>
      </g>
     </g>
    </g>
    <g id="text_8">
     <!-- Q -->
     <g transform="translate(232.224063 335.860562) scale(0.1 -0.1)">
      <defs>
       <path id="DejaVuSans-51" d="M 2522 4238 
Q 1834 4238 1429 3725 
Q 1025 3213 1025 2328 
Q 1025 1447 1429 934 
Q 1834 422 2522 422 
Q 3209 422 3611 934 
Q 4013 1447 4013 2328 
Q 4013 3213 3611 3725 
Q 3209 4238 2522 4238 
z
M 3406 84 
L 4238 -825 
L 3475 -825 
L 2784 -78 
Q 2681 -84 2626 -87 
Q 2572 -91 2522 -91 
Q 1538 -91 948 567 
Q 359 1225 359 2328 
Q 359 3434 948 4092 
Q 1538 4750 2522 4750 
Q 3503 4750 4090 4092 
Q 4678 3434 4678 2328 
Q 4678 1516 4351 937 
Q 4025 359 3406 84 
z
" transform="scale(0.015625)"/>
      </defs>
      <use xlink:href="#DejaVuSans-51"/>
     </g>
    </g>
   </g>
   <g id="matplotlib.axis_2">
    <g id="ytick_1">
     <g id="line2d_15">
      <path d="M 57.6 295.488 
L 414.72 295.488 
" clip-path="url(#pb44a58f666)" style="fill: none; stroke: #b0b0b0; stroke-width: 0.8; stroke-linecap: square"/>
     </g>
     <g id="line2d_16">
      <defs>
       <path id="m7e46be9be7" d="M 0 0 
L -3.5 0 
" style="stroke: #000000; stroke-width: 0.8"/>
      </defs>
      <g>
       <use xlink:href="#m7e46be9be7" x="57.6" y="295.488" style="stroke: #000000; stroke-width: 0.8"/>
      </g>
     </g>
     <g id="text_9">
      <!-- −0.100 -->
      <g transform="translate(13.592188 299.287219) scale(0.1 -0.1)">
       <defs>
        <path id="DejaVuSans-2212" d="M 678 2272 
L 4684 2272 
L 4684 1741 
L 678 1741 
L 678 2272 
z
" transform="scale(0.015625)"/>
        <path id="DejaVuSans-2e" d="M 684 794 
L 1344 794 
L 1344 0 
L 684 0 
L 684 794 
z
" transform="scale(0.015625)"/>
       </defs>
       <use xlink:href="#DejaVuSans-2212"/>
       <use xlink:href="#DejaVuSans-30" x="83.789062"/>
       <use xlink:href="#DejaVuSans-2e" x="147.412109"/>
       <use xlink:href="#DejaVuSans-31" x="179.199219"/>
       <use xlink:href="#DejaVuSans-30" x="242.822266"/>
       <use xlink:href="#DejaVuSans-30" x="306.445312"/>
      </g>
     </g>
    </g>
    <g id="ytick_2">
     <g id="line2d_17">
      <path d="M 57.6 265.248 
L 414.72 265.248 
" clip-path="url(#pb44a58f666)" style="fill: none; stroke: #b0b0b0; stroke-width: 0.8; stroke-linecap: square"/>
     </g>
     <g id="line2d_18">
      <g>
       <use xlink:href="#m7e46be9be7" x="57.6" y="265.248" style="stroke: #000000; stroke-width: 0.8"/>
      </g>
     </g>
     <g id="text_10">
      <!-- −0.075 -->
      <g transform="translate(13.592188 269.047219) scale(0.1 -0.1)">
       <defs>
        <path id="DejaVuSans-37" d="M 525 4666 
L 3525 4666 
L 3525 4397 
L 1831 0 
L 1172 0 
L 2766 4134 
L 525 4134 
L 525 4666 
z
" transform="scale(0.015625)"/>
       </defs>
       <use xlink:href="#DejaVuSans-2212"/>
       <use xlink:href="#DejaVuSans-30" x="83.789062"/>
       <use xlink:href="#DejaVuSans-2e" x="147.412109"/>
       <use xlink:href="#DejaVuSans-30" x="179.199219"/>
       <use xlink:href="#DejaVuSans-37" x="242.822266"/>
       <use xlink:href="#DejaVuSans-35" x="306.445312"/>
      </g>
     </g>
    </g>
    <g id="ytick_3">
     <g id="line2d_19">
      <path d="M 57.6 235.008 
L 414.72 235.008 
" clip-path="url(#pb44a58f666)" style="fill: none; stroke: #b0b0b0; stroke-width: 0.8; stroke-linecap: square"/>
     </g>
     <g id="line2d_20">
      <g>
       <use xlink:href="#m7e46be9be7" x="57.6" y="235.008" style="stroke: #000000; stroke-width: 0.8"/>
      </g>
     </g>
     <g id="text_11">
      <!-- −0.050 -->
      <g transform="translate(13.592188 238.807219) scale(0.1 -0.1)">
       <use xlink:href="#DejaVuSans-2212"/>
       <use xlink:href="#DejaVuSans-30" x="83.789062"/>
       <use xlink:href="#DejaVuSans-2e" x="147.412109"/>
       <use xlink:href="#DejaVuSans-30" x="179.199219"/>
       <use xlink:href="#DejaVuSans-35" x="242.822266"/>
       <use xlink:href="#DejaVuSans-30" x="306.445312"/>
      </g>
     </g>
    </g>
    <g id="ytick_4">
     <g id="line2d_21">
      <path d="M 57.6 204.768 
L 414.72 204.768 
" clip-path="url(#pb44a58f666)" style="fill: none; stroke: #b0b0b0; stroke-width: 0.8; stroke-linecap: square"/>
     </g>
     <g id="line2d_22">
      <g>
       <use xlink:href="#m7e46be9be7" x="57.6" y="204.768" style="stroke: #000000; stroke-width: 0.8"/>
      </g>
     </g>
     <g id="text_12">
      <!-- −0.025 -->
      <g transform="translate(13.592188 208.567219) scale(0.1 -0.1)">
       <use xlink:href="#DejaVuSans-2212"/>
       <use xlink:href="#DejaVuSans-30" x="83.789062"/>
       <use xlink:href="#DejaVuSans-2e" x="147.412109"/>
       <use xlink:href="#DejaVuSans-30" x="179.199219"/>
       <use xlink:href="#DejaVuSans-32" x="242.822266"/>
       <use xlink:href="#DejaVuSans-35" x="306.445312"/>
      </g>
     </g>
    </g>
    <g id="ytick_5">
     <g id="line2d_23">
      <path d="M 57.6 174.528 
L 414.72 174.528 
" clip-path="url(#pb44a58f666)" style="fill: none; stroke: #b0b0b0; stroke-width: 0.8; stroke-linecap: square"/>
     </g>
     <g id="line2d_24">
      <g>
       <use xlink:href="#m7e46be9be7" x="57.6" y="174.528" style="stroke: #000000; stroke-width: 0.8"/>
      </g>
     </g>
     <g id="text_13">
      <!-- 0.000 -->
      <g transform="translate(21.971875 178.327219) scale(0.1 -0.1)">
       <use xlink:href="#DejaVuSans-30"/>
       <use xlink:href="#DejaVuSans-2e" x="63.623047"/>
       <use xlink:href="#DejaVuSans-30" x="95.410156"/>
       <use xlink:href="#DejaVuSans-30" x="159.033203"/>
       <use xlink:href="#DejaVuSans-30" x="222.65625"/>
      </g>
     </g>
    </g>
    <g id="ytick_6">
     <g id="line2d_25">
      <path d="M 57.6 144.288 
L 414.72 144.288 
" clip-path="url(#pb44a58f666)" style="fill: none; stroke: #b0b0b0; stroke-width: 0.8; stroke-linecap: square"/>
     </g>
     <g id="line2d_26">
      <g>
       <use xlink:href="#m7e46be9be7" x="57.6" y="144.288" style="stroke: #000000; stroke-width: 0.8"/>
      </g>
     </g>
     <g id="text_14">
      <!-- 0.025 -->
      <g transform="translate(21.971875 148.087219) scale(0.1 -0.1)">
       <use xlink:href="#DejaVuSans-30"/>
       <use xlink:href="#DejaVuSans-2e" x="63.623047"/>
       <use xlink:href="#DejaVuSans-30" x="95.410156"/>
       <use xlink:href="#DejaVuSans-32" x="159.033203"/>
       <use xlink:href="#DejaVuSans-35" x="222.65625"/>
      </g>
     </g>
    </g>
    <g id="ytick_7">
     <g id="line2d_27">
      <path d="M 57.6 114.048 
L 414.72 114.048 
" clip-path="url(#pb44a58f666)" style="fill: none; stroke: #b0b0b0; stroke-width: 0.8; stroke-linecap: square"/>
     </g>
     <g id="line2d_28">
      <g>
       <use xlink:href="#m7e46be9be7" x="57.6" y="114.048" style="stroke: #000000; stroke-width: 0.8"/>
      </g>
     </g>
     <g id="text_15">
      <!-- 0.050 -->
      <g transform="translate(21.971875 117.847219) scale(0.1 -0.1)">
       <use xlink:href="#DejaVuSans-30"/>
       <use xlink:href="#DejaVuSans-2e" x="63.623047"/>
       <use xlink:href="#DejaVuSans-30" x="95.410156"/>
       <use xlink:href="#DejaVuSans-35" x="159.033203"/>
       <use xlink:href="#DejaVuSans-30" x="222.65625"/>
      </g>
     </g>
    </g>
    <g id="ytick_8">
     <g id="line2d_29">
      <path d="M 57.6 83.808 
L 414.72 83.808 
" clip-path="url(#pb44a58f666)" style="fill: none; stroke: #b0b0b0; stroke-width: 0.8; stroke-linecap: square"/>
     </g>
     <g id="line2d_30">
      <g>
       <use xlink:href="#m7e46be9be7" x="57.6" y="83.808" style="stroke: #000000; stroke-width: 0.8"/>
      </g>
     </g>
     <g id="text_16">
      <!-- 0.075 -->
      <g transform="translate(21.971875 87.607219) scale(0.1 -0.1)">
       <use xlink:href="#DejaVuSans-30"/>
       <use xlink:href="#DejaVuSans-2e" x="63.623047"/>
       <use xlink:href="#DejaVuSans-30" x="95.410156"/>
       <use xlink:href="#DejaVuSans-37" x="159.033203"/>
       <use xlink:href="#DejaVuSans-35" x="222.65625"/>
      </g>
     </g>
    </g>
    <g id="ytick_9">
     <g id="line2d_31">
      <path d="M 57.6 53.568 
L 414.72 53.568 
" clip-path="url(#pb44a58f666)" style="fill: none; stroke: #b0b0b0; stroke-width: 0.8; stroke-linecap: square"/>
     </g>
     <g id="line2d_32">
      <g>
       <use xlink:href="#m7e46be9be7" x="57.6" y="53.568" style="stroke: #000000; stroke-width: 0.8"/>
      </g>
     </g>
     <g id="text_17">
      <!-- 0.100 -->
      <g transform="translate(21.971875 57.367219) scale(0.1 -0.1)">
       <use xlink:href="#DejaVuSans-30"/>
       <use xlink:href="#DejaVuSans-2e" x="63.623047"/>
       <use xlink:href="#DejaVuSans-31" x="95.410156"/>
       <use xlink:href="#DejaVuSans-30" x="159.033203"/>
       <use xlink:href="#DejaVuSans-30" x="222.65625"/>
      </g>
     </g>
    </g>
    <g id="text_18">
     <!-- I(Q) -->
     <g transform="translate(7.5125 183.8405) rotate(-90) scale(0.1 -0.1)">
      <defs>
       <path id="DejaVuSans-49" d="M 628 4666 
L 1259 4666 
L 1259 0 
L 628 0 
L 628 4666 
z
" transform="scale(0.015625)"/>
       <path id="DejaVuSans-28" d="M 1984 4856 
Q 1566 4138 1362 3434 
Q 1159 2731 1159 2009 
Q 1159 1288 1364 580 
Q 1569 -128 1984 -844 
L 1484 -844 
Q 1016 -109 783 600 
Q 550 1309 550 2009 
Q 550 2706 781 3412 
Q 1013 4119 1484 4856 
L 1984 4856 
z
" transform="scale(0.015625)"/>
       <path id="DejaVuSans-29" d="M 513 4856 
L 1013 4856 
Q 1481 4119 1714 3412 
Q 1947 2706 1947 2009 
Q 1947 1309 1714 600 
Q 1481 -109 1013 -844 
L 513 -844 
Q 928 -128 1133 580 
Q 1338 1288 1338 2009 
Q 1338 2731 1133 3434 
Q 928 4138 513 4856 
z
" transform="scale(0.015625)"/>
      </defs>
      <use xlink:href="#DejaVuSans-49"/>
      <use xlink:href="#DejaVuSans-28" x="29.492188"/>
      <use xlink:href="#DejaVuSans-51" x="68.505859"/>
      <use xlink:href="#DejaVuSans-29" x="147.216797"/>
     </g>
    </g>
   </g>
   <g id="line2d_33">
    <path d="M 76.264169 53.568 
L 77.071746 295.488 
L 77.879322 295.488 
L 78.686899 278.634474 
L 79.494476 219.019108 
L 81.109629 284.849314 
L 81.917206 289.050243 
L 82.724782 280.921513 
L 83.532359 275.1707 
L 84.339936 272.494024 
L 85.147513 272.007148 
L 85.955089 274.326568 
L 86.762666 277.532753 
L 87.570243 278.195982 
L 89.185396 273.016251 
L 89.992973 272.651139 
L 90.800549 274.146592 
L 91.608126 275.085114 
L 92.415703 274.210168 
L 94.030856 270.384337 
L 95.64601 266.80438 
L 96.453586 264.166993 
L 97.261163 260.360273 
L 98.06874 255.250789 
L 99.683893 242.09044 
L 100.49147 234.027201 
L 101.299047 224.572591 
L 102.9142 201.868927 
L 106.144507 152.23956 
L 106.952084 142.993883 
L 107.75966 138.489003 
L 108.567237 138.870446 
L 109.374814 141.952365 
L 110.989967 149.16219 
L 112.60512 158.649999 
L 114.220274 167.352521 
L 115.835427 175.159451 
L 116.643004 178.094136 
L 117.450581 179.431389 
L 118.258157 179.232416 
L 119.065734 178.109394 
L 120.680887 175.263116 
L 121.488464 173.065085 
L 122.296041 169.444895 
L 124.718771 155.792088 
L 125.526348 151.553067 
L 126.333924 146.472223 
L 127.949078 135.107438 
L 128.756654 130.777708 
L 129.564231 127.984116 
L 130.371808 126.322718 
L 131.179385 125.302981 
L 131.986961 125.00169 
L 132.794538 125.942357 
L 133.602115 128.359624 
L 134.409691 131.881295 
L 136.024845 140.429551 
L 140.062728 163.743291 
L 141.677882 170.932991 
L 143.293035 176.851064 
L 144.908188 181.635087 
L 145.715765 183.413175 
L 146.523342 184.606026 
L 149.753649 187.791726 
L 150.561225 188.254128 
L 152.176379 188.891791 
L 152.983955 189.608919 
L 156.214262 193.628534 
L 157.829416 195.314222 
L 158.636992 196.218736 
L 159.444569 196.95451 
L 160.252146 197.37343 
L 161.059723 197.487511 
L 162.674876 197.323045 
L 163.482453 197.139533 
L 164.290029 196.701185 
L 165.097606 195.859811 
L 166.712759 193.337336 
L 168.327913 190.414297 
L 170.750643 185.24822 
L 175.596103 174.193713 
L 176.40368 172.670135 
L 177.211257 171.438948 
L 179.633987 168.485575 
L 180.441563 167.65147 
L 181.24914 167.158053 
L 182.056717 166.975928 
L 184.479447 166.976527 
L 186.0946 167.050336 
L 187.709754 167.362943 
L 189.324907 167.733529 
L 190.94006 167.851339 
L 193.362791 167.547188 
L 194.170367 167.405429 
L 194.977944 167.139888 
L 200.630981 164.449855 
L 201.438558 164.301001 
L 204.668864 164.268528 
L 205.476441 164.537123 
L 207.091594 165.400047 
L 208.706748 166.054373 
L 209.514325 166.696036 
L 211.937055 169.261605 
L 221.627975 177.597386 
L 224.050705 179.451429 
L 227.281012 181.986683 
L 232.126472 184.645611 
L 233.741626 185.30865 
L 235.356779 185.794008 
L 236.971932 185.960308 
L 238.587086 185.863821 
L 239.394663 185.731397 
L 241.009816 185.118937 
L 242.624969 184.146293 
L 244.240123 182.768814 
L 248.278006 178.761148 
L 253.123466 172.664368 
L 257.968927 167.881491 
L 260.391657 166.3586 
L 262.00681 165.477432 
L 262.814387 165.174872 
L 264.42954 164.94998 
L 267.659847 164.772753 
L 269.275 165.169573 
L 271.697731 165.830104 
L 273.312884 166.597369 
L 276.543191 168.519172 
L 278.158344 169.44387 
L 283.811381 173.734135 
L 289.464418 177.625345 
L 293.502302 179.676403 
L 296.732608 180.556372 
L 299.962915 180.783713 
L 301.578069 180.763264 
L 304.808375 180.374883 
L 308.846259 179.465286 
L 312.884142 178.306085 
L 315.306872 177.511722 
L 317.729603 176.720451 
L 319.344756 176.164286 
L 331.458407 171.331102 
L 335.49629 169.923806 
L 337.91902 169.229227 
L 340.34175 168.835402 
L 342.76448 168.623007 
L 345.18721 168.789148 
L 347.609941 169.097811 
L 349.225094 169.494535 
L 352.455401 170.709989 
L 354.070554 171.387649 
L 357.300861 173.123888 
L 360.531168 175.057412 
L 362.146321 176.043793 
L 368.606935 179.414887 
L 370.222088 180.01781 
L 373.452395 180.899905 
L 375.067548 181.054706 
L 376.682702 180.984383 
L 379.105432 180.667774 
L 380.720585 180.267889 
L 383.143315 179.417788 
L 387.181199 177.429881 
L 392.834236 174.129382 
L 398.487273 171.348335 
L 398.487273 171.348335 
" clip-path="url(#pb44a58f666)" style="fill: none; stroke: #1f77b4; stroke-width: 1.5; stroke-linecap: square"/>
   </g>
   <g id="line2d_34">
    <path d="M 73.832727 53.568 
L 74.914909 53.568 
L 75.997091 260.423392 
L 77.079273 275.865714 
L 78.161455 278.515974 
L 79.243637 278.986568 
L 80.325818 279.26111 
L 81.408 279.289221 
L 82.490182 279.109244 
L 84.654546 278.920505 
L 86.818909 278.372685 
L 88.983273 277.600373 
L 90.065455 277.085732 
L 91.147637 276.446561 
L 92.229819 275.521666 
L 93.312 274.114233 
L 94.394182 271.825794 
L 95.476365 268.563372 
L 96.558546 264.235318 
L 97.640726 258.340389 
L 98.72291 251.009003 
L 99.80509 241.514669 
L 100.887274 229.559771 
L 101.969454 215.729915 
L 106.298182 153.496755 
L 107.380363 144.017079 
L 108.462546 139.383588 
L 109.544727 140.398664 
L 111.709091 152.422674 
L 112.791272 159.228222 
L 114.955636 170.45634 
L 117.120002 176.189884 
L 118.202183 177.689496 
L 119.284364 176.530324 
L 120.366545 175.639532 
L 121.448725 171.979065 
L 122.530911 167.518885 
L 123.613092 161.833996 
L 124.695273 155.433567 
L 126.859634 141.185576 
L 127.94182 134.959275 
L 129.024001 129.694785 
L 130.106181 126.201958 
L 131.188362 124.802733 
L 132.270548 124.924285 
L 134.434909 130.066029 
L 139.845818 161.828446 
L 142.01018 172.038224 
L 144.174546 179.757684 
L 147.421093 185.543972 
L 148.503274 186.465359 
L 149.585455 187.103432 
L 150.667636 188.805166 
L 151.749816 189.134521 
L 152.832002 190.474858 
L 153.914183 191.197475 
L 154.996364 192.452565 
L 156.078544 193.914012 
L 157.160725 194.856265 
L 158.242906 196.241195 
L 160.407277 197.64945 
L 161.489458 197.848721 
L 162.571639 197.641589 
L 165.818181 195.212416 
L 166.900362 193.069593 
L 167.982543 191.768267 
L 169.064724 188.949927 
L 170.146904 187.10086 
L 171.229095 183.931512 
L 172.311276 181.957269 
L 173.393456 178.832587 
L 174.475637 177.093514 
L 175.557818 174.111448 
L 176.639999 172.724157 
L 177.722179 170.415728 
L 178.80436 169.793002 
L 180.968732 167.3177 
L 182.050912 166.375578 
L 183.133093 166.52834 
L 184.215274 165.836951 
L 185.297455 166.703709 
L 186.379635 166.70231 
L 187.461816 167.045911 
L 188.543997 166.60906 
L 189.626178 166.800458 
L 190.708368 167.785597 
L 191.790549 166.071563 
L 192.87273 166.953613 
L 193.954911 167.352177 
L 195.037091 166.044462 
L 196.119272 165.254395 
L 197.201453 165.667766 
L 198.283634 165.047457 
L 199.365815 164.813071 
L 200.447995 163.978955 
L 201.530186 164.360636 
L 202.612367 163.716163 
L 203.694547 163.685818 
L 204.776728 163.821849 
L 205.858909 164.180729 
L 206.94109 164.195378 
L 208.023271 165.84677 
L 209.105451 165.818073 
L 210.187632 167.735492 
L 211.269823 168.332492 
L 213.434184 170.465027 
L 214.516365 171.103669 
L 215.598546 172.588733 
L 216.680726 173.232742 
L 217.762907 174.652943 
L 218.845088 174.978144 
L 219.927269 176.229951 
L 221.009459 177.900721 
L 222.09164 178.212367 
L 223.173821 178.236974 
L 224.256002 179.837098 
L 225.338182 179.772301 
L 226.420363 181.333734 
L 227.502544 181.956369 
L 228.584725 181.945126 
L 229.666906 183.710305 
L 230.749086 184.3101 
L 231.831277 184.754916 
L 232.913458 184.408052 
L 233.995638 185.645052 
L 235.077819 185.966923 
L 236.16 186.46438 
L 237.242181 186.06072 
L 238.324362 186.422358 
L 239.406542 186.238713 
L 240.488723 185.104931 
L 241.570904 184.796029 
L 242.653085 184.666669 
L 243.735266 183.281029 
L 244.817446 181.417232 
L 245.899627 180.718253 
L 246.981827 179.875123 
L 248.064008 178.643791 
L 249.146189 177.817247 
L 250.22837 175.869674 
L 251.31055 174.46388 
L 252.392731 173.937132 
L 253.474912 172.621868 
L 254.557093 170.817538 
L 255.639274 169.689961 
L 256.721454 168.077841 
L 257.803635 167.544689 
L 258.885816 167.150109 
L 261.050177 165.942924 
L 262.132358 164.946797 
L 263.214539 164.465597 
L 264.29672 163.244083 
L 265.378901 164.161234 
L 266.461081 164.344199 
L 267.543281 164.345468 
L 269.707643 165.443566 
L 270.789824 165.505621 
L 271.872005 165.331584 
L 272.954185 165.470755 
L 274.036366 166.7517 
L 275.118547 167.401998 
L 276.200728 167.553254 
L 278.365089 169.798555 
L 279.44727 170.975669 
L 280.529451 171.22531 
L 281.611632 171.702797 
L 282.693813 172.799294 
L 284.858174 174.690038 
L 285.940355 174.886258 
L 287.022555 175.594542 
L 289.186917 177.725748 
L 290.269097 177.995508 
L 291.351278 178.049735 
L 292.433459 179.261198 
L 293.51564 179.194684 
L 294.597821 180.141775 
L 296.762182 180.519434 
L 297.844363 180.335316 
L 298.926544 180.71643 
L 300.008724 181.231691 
L 301.090905 180.681255 
L 302.173086 180.781895 
L 303.255267 180.126244 
L 304.337448 180.523555 
L 305.419628 180.152264 
L 306.501809 180.100706 
L 307.584009 180.254912 
L 309.748371 178.798599 
L 310.830552 178.754427 
L 311.912732 178.306722 
L 312.994913 178.194565 
L 314.077094 177.879893 
L 316.241456 176.765012 
L 319.487998 175.717155 
L 320.570179 175.95157 
L 321.65236 175.410305 
L 322.73454 174.681187 
L 323.816721 174.416589 
L 324.898902 173.643468 
L 325.981083 173.181579 
L 327.063263 173.103673 
L 330.309825 171.331552 
L 331.392006 171.035694 
L 332.474187 171.415984 
L 333.556368 170.025356 
L 334.638548 170.211713 
L 335.720729 169.8092 
L 336.80291 168.911491 
L 337.885091 168.877591 
L 338.967271 168.348341 
L 340.049452 168.15153 
L 341.131633 168.377249 
L 342.213814 168.262541 
L 343.295995 168.737713 
L 344.378175 168.177091 
L 345.460356 168.529639 
L 346.542537 168.493511 
L 348.706918 169.500703 
L 349.789099 168.933938 
L 350.871279 170.745762 
L 351.95346 170.557833 
L 354.117822 171.230117 
L 355.200003 171.725508 
L 356.282183 172.912321 
L 357.364364 172.163726 
L 358.446545 173.804158 
L 359.528726 173.983468 
L 360.610907 175.068195 
L 361.693087 175.711553 
L 362.775268 176.825799 
L 363.857449 176.725073 
L 364.93963 177.597898 
L 367.103991 178.656755 
L 368.186191 178.906748 
L 369.268372 180.211967 
L 370.350553 179.881565 
L 371.432734 180.390537 
L 374.679276 180.837026 
L 375.761457 180.959733 
L 376.843638 180.903066 
L 377.925818 181.037428 
L 379.007999 180.395588 
L 380.09018 180.452626 
L 381.172361 179.888204 
L 382.254542 179.876682 
L 383.336722 179.537706 
L 384.418903 178.136311 
L 385.501084 178.206698 
L 386.583265 176.944907 
L 387.665446 176.428274 
L 388.747646 176.442984 
L 390.912007 175.128358 
L 391.994188 174.887 
L 393.076369 173.528141 
L 396.322911 172.201252 
L 397.405092 171.318093 
L 398.487273 170.871412 
L 398.487273 170.871412 
" clip-path="url(#pb44a58f666)" style="fill: none; stroke-dasharray: 5.55,2.4; stroke-dashoffset: 0; stroke: #000000; stroke-width: 1.5"/>
   </g>
   <g id="patch_3">
    <path d="M 57.6 307.584 
L 57.6 41.472 
" style="fill: none; stroke: #000000; stroke-width: 0.8; stroke-linejoin: miter; stroke-linecap: square"/>
   </g>
   <g id="patch_4">
    <path d="M 414.72 307.584 
L 414.72 41.472 
" style="fill: none; stroke: #000000; stroke-width: 0.8; stroke-linejoin: miter; stroke-linecap: square"/>
   </g>
   <g id="patch_5">
    <path d="M 57.6 307.584 
L 414.72 307.584 
" style="fill: none; stroke: #000000; stroke-width: 0.8; stroke-linejoin: miter; stroke-linecap: square"/>
   </g>
   <g id="patch_6">
    <path d="M 57.6 41.472 
L 414.72 41.472 
" style="fill: none; stroke: #000000; stroke-width: 0.8; stroke-linejoin: miter; stroke-linecap: square"/>
   </g>
   <g id="legend_1">
    <g id="patch_7">
     <path d="M 277.198125 78.82825 
L 407.72 78.82825 
Q 409.72 78.82825 409.72 76.82825 
L 409.72 48.472 
Q 409.72 46.472 407.72 46.472 
L 277.198125 46.472 
Q 275.198125 46.472 275.198125 48.472 
L 275.198125 76.82825 
Q 275.198125 78.82825 277.198125 78.82825 
z
" style="fill: #ffffff; opacity: 0.8; stroke: #cccccc; stroke-linejoin: miter"/>
    </g>
    <g id="line2d_35">
     <path d="M 279.198125 54.570437 
L 289.198125 54.570437 
L 299.198125 54.570437 
" style="fill: none; stroke: #1f77b4; stroke-width: 1.5; stroke-linecap: square"/>
    </g>
    <g id="text_19">
     <!-- JAXMD + Debye -->
     <g transform="translate(307.198125 58.070437) scale(0.1 -0.1)">
      <defs>
       <path id="DejaVuSans-4a" d="M 628 4666 
L 1259 4666 
L 1259 325 
Q 1259 -519 939 -900 
Q 619 -1281 -91 -1281 
L -331 -1281 
L -331 -750 
L -134 -750 
Q 284 -750 456 -515 
Q 628 -281 628 325 
L 628 4666 
z
" transform="scale(0.015625)"/>
       <path id="DejaVuSans-41" d="M 2188 4044 
L 1331 1722 
L 3047 1722 
L 2188 4044 
z
M 1831 4666 
L 2547 4666 
L 4325 0 
L 3669 0 
L 3244 1197 
L 1141 1197 
L 716 0 
L 50 0 
L 1831 4666 
z
" transform="scale(0.015625)"/>
       <path id="DejaVuSans-58" d="M 403 4666 
L 1081 4666 
L 2241 2931 
L 3406 4666 
L 4084 4666 
L 2584 2425 
L 4184 0 
L 3506 0 
L 2194 1984 
L 872 0 
L 191 0 
L 1856 2491 
L 403 4666 
z
" transform="scale(0.015625)"/>
       <path id="DejaVuSans-4d" d="M 628 4666 
L 1569 4666 
L 2759 1491 
L 3956 4666 
L 4897 4666 
L 4897 0 
L 4281 0 
L 4281 4097 
L 3078 897 
L 2444 897 
L 1241 4097 
L 1241 0 
L 628 0 
L 628 4666 
z
" transform="scale(0.015625)"/>
       <path id="DejaVuSans-44" d="M 1259 4147 
L 1259 519 
L 2022 519 
Q 2988 519 3436 956 
Q 3884 1394 3884 2338 
Q 3884 3275 3436 3711 
Q 2988 4147 2022 4147 
L 1259 4147 
z
M 628 4666 
L 1925 4666 
Q 3281 4666 3915 4102 
Q 4550 3538 4550 2338 
Q 4550 1131 3912 565 
Q 3275 0 1925 0 
L 628 0 
L 628 4666 
z
" transform="scale(0.015625)"/>
       <path id="DejaVuSans-20" transform="scale(0.015625)"/>
       <path id="DejaVuSans-2b" d="M 2944 4013 
L 2944 2272 
L 4684 2272 
L 4684 1741 
L 2944 1741 
L 2944 0 
L 2419 0 
L 2419 1741 
L 678 1741 
L 678 2272 
L 2419 2272 
L 2419 4013 
L 2944 4013 
z
" transform="scale(0.015625)"/>
       <path id="DejaVuSans-65" d="M 3597 1894 
L 3597 1613 
L 953 1613 
Q 991 1019 1311 708 
Q 1631 397 2203 397 
Q 2534 397 2845 478 
Q 3156 559 3463 722 
L 3463 178 
Q 3153 47 2828 -22 
Q 2503 -91 2169 -91 
Q 1331 -91 842 396 
Q 353 884 353 1716 
Q 353 2575 817 3079 
Q 1281 3584 2069 3584 
Q 2775 3584 3186 3129 
Q 3597 2675 3597 1894 
z
M 3022 2063 
Q 3016 2534 2758 2815 
Q 2500 3097 2075 3097 
Q 1594 3097 1305 2825 
Q 1016 2553 972 2059 
L 3022 2063 
z
" transform="scale(0.015625)"/>
       <path id="DejaVuSans-62" d="M 3116 1747 
Q 3116 2381 2855 2742 
Q 2594 3103 2138 3103 
Q 1681 3103 1420 2742 
Q 1159 2381 1159 1747 
Q 1159 1113 1420 752 
Q 1681 391 2138 391 
Q 2594 391 2855 752 
Q 3116 1113 3116 1747 
z
M 1159 2969 
Q 1341 3281 1617 3432 
Q 1894 3584 2278 3584 
Q 2916 3584 3314 3078 
Q 3713 2572 3713 1747 
Q 3713 922 3314 415 
Q 2916 -91 2278 -91 
Q 1894 -91 1617 61 
Q 1341 213 1159 525 
L 1159 0 
L 581 0 
L 581 4863 
L 1159 4863 
L 1159 2969 
z
" transform="scale(0.015625)"/>
       <path id="DejaVuSans-79" d="M 2059 -325 
Q 1816 -950 1584 -1140 
Q 1353 -1331 966 -1331 
L 506 -1331 
L 506 -850 
L 844 -850 
Q 1081 -850 1212 -737 
Q 1344 -625 1503 -206 
L 1606 56 
L 191 3500 
L 800 3500 
L 1894 763 
L 2988 3500 
L 3597 3500 
L 2059 -325 
z
" transform="scale(0.015625)"/>
      </defs>
      <use xlink:href="#DejaVuSans-4a"/>
      <use xlink:href="#DejaVuSans-41" x="27.742188"/>
      <use xlink:href="#DejaVuSans-58" x="96.150391"/>
      <use xlink:href="#DejaVuSans-4d" x="164.65625"/>
      <use xlink:href="#DejaVuSans-44" x="250.935547"/>
      <use xlink:href="#DejaVuSans-20" x="327.9375"/>
      <use xlink:href="#DejaVuSans-2b" x="359.724609"/>
      <use xlink:href="#DejaVuSans-20" x="443.513672"/>
      <use xlink:href="#DejaVuSans-44" x="475.300781"/>
      <use xlink:href="#DejaVuSans-65" x="552.302734"/>
      <use xlink:href="#DejaVuSans-62" x="613.826172"/>
      <use xlink:href="#DejaVuSans-79" x="677.302734"/>
      <use xlink:href="#DejaVuSans-65" x="736.482422"/>
     </g>
    </g>
    <g id="line2d_36">
     <path d="M 279.198125 69.248562 
L 289.198125 69.248562 
L 299.198125 69.248562 
" style="fill: none; stroke-dasharray: 5.55,2.4; stroke-dashoffset: 0; stroke: #000000; stroke-width: 1.5"/>
    </g>
    <g id="text_20">
     <!-- LAMMPS + Sassena -->
     <g transform="translate(307.198125 72.748562) scale(0.1 -0.1)">
      <defs>
       <path id="DejaVuSans-4c" d="M 628 4666 
L 1259 4666 
L 1259 531 
L 3531 531 
L 3531 0 
L 628 0 
L 628 4666 
z
" transform="scale(0.015625)"/>
       <path id="DejaVuSans-50" d="M 1259 4147 
L 1259 2394 
L 2053 2394 
Q 2494 2394 2734 2622 
Q 2975 2850 2975 3272 
Q 2975 3691 2734 3919 
Q 2494 4147 2053 4147 
L 1259 4147 
z
M 628 4666 
L 2053 4666 
Q 2838 4666 3239 4311 
Q 3641 3956 3641 3272 
Q 3641 2581 3239 2228 
Q 2838 1875 2053 1875 
L 1259 1875 
L 1259 0 
L 628 0 
L 628 4666 
z
" transform="scale(0.015625)"/>
       <path id="DejaVuSans-53" d="M 3425 4513 
L 3425 3897 
Q 3066 4069 2747 4153 
Q 2428 4238 2131 4238 
Q 1616 4238 1336 4038 
Q 1056 3838 1056 3469 
Q 1056 3159 1242 3001 
Q 1428 2844 1947 2747 
L 2328 2669 
Q 3034 2534 3370 2195 
Q 3706 1856 3706 1288 
Q 3706 609 3251 259 
Q 2797 -91 1919 -91 
Q 1588 -91 1214 -16 
Q 841 59 441 206 
L 441 856 
Q 825 641 1194 531 
Q 1563 422 1919 422 
Q 2459 422 2753 634 
Q 3047 847 3047 1241 
Q 3047 1584 2836 1778 
Q 2625 1972 2144 2069 
L 1759 2144 
Q 1053 2284 737 2584 
Q 422 2884 422 3419 
Q 422 4038 858 4394 
Q 1294 4750 2059 4750 
Q 2388 4750 2728 4690 
Q 3069 4631 3425 4513 
z
" transform="scale(0.015625)"/>
       <path id="DejaVuSans-61" d="M 2194 1759 
Q 1497 1759 1228 1600 
Q 959 1441 959 1056 
Q 959 750 1161 570 
Q 1363 391 1709 391 
Q 2188 391 2477 730 
Q 2766 1069 2766 1631 
L 2766 1759 
L 2194 1759 
z
M 3341 1997 
L 3341 0 
L 2766 0 
L 2766 531 
Q 2569 213 2275 61 
Q 1981 -91 1556 -91 
Q 1019 -91 701 211 
Q 384 513 384 1019 
Q 384 1609 779 1909 
Q 1175 2209 1959 2209 
L 2766 2209 
L 2766 2266 
Q 2766 2663 2505 2880 
Q 2244 3097 1772 3097 
Q 1472 3097 1187 3025 
Q 903 2953 641 2809 
L 641 3341 
Q 956 3463 1253 3523 
Q 1550 3584 1831 3584 
Q 2591 3584 2966 3190 
Q 3341 2797 3341 1997 
z
" transform="scale(0.015625)"/>
       <path id="DejaVuSans-73" d="M 2834 3397 
L 2834 2853 
Q 2591 2978 2328 3040 
Q 2066 3103 1784 3103 
Q 1356 3103 1142 2972 
Q 928 2841 928 2578 
Q 928 2378 1081 2264 
Q 1234 2150 1697 2047 
L 1894 2003 
Q 2506 1872 2764 1633 
Q 3022 1394 3022 966 
Q 3022 478 2636 193 
Q 2250 -91 1575 -91 
Q 1294 -91 989 -36 
Q 684 19 347 128 
L 347 722 
Q 666 556 975 473 
Q 1284 391 1588 391 
Q 1994 391 2212 530 
Q 2431 669 2431 922 
Q 2431 1156 2273 1281 
Q 2116 1406 1581 1522 
L 1381 1569 
Q 847 1681 609 1914 
Q 372 2147 372 2553 
Q 372 3047 722 3315 
Q 1072 3584 1716 3584 
Q 2034 3584 2315 3537 
Q 2597 3491 2834 3397 
z
" transform="scale(0.015625)"/>
       <path id="DejaVuSans-6e" d="M 3513 2113 
L 3513 0 
L 2938 0 
L 2938 2094 
Q 2938 2591 2744 2837 
Q 2550 3084 2163 3084 
Q 1697 3084 1428 2787 
Q 1159 2491 1159 1978 
L 1159 0 
L 581 0 
L 581 3500 
L 1159 3500 
L 1159 2956 
Q 1366 3272 1645 3428 
Q 1925 3584 2291 3584 
Q 2894 3584 3203 3211 
Q 3513 2838 3513 2113 
z
" transform="scale(0.015625)"/>
      </defs>
      <use xlink:href="#DejaVuSans-4c"/>
      <use xlink:href="#DejaVuSans-41" x="57.962891"/>
      <use xlink:href="#DejaVuSans-4d" x="126.371094"/>
      <use xlink:href="#DejaVuSans-4d" x="212.650391"/>
      <use xlink:href="#DejaVuSans-50" x="298.929688"/>
      <use xlink:href="#DejaVuSans-53" x="359.232422"/>
      <use xlink:href="#DejaVuSans-20" x="422.708984"/>
      <use xlink:href="#DejaVuSans-2b" x="454.496094"/>
      <use xlink:href="#DejaVuSans-20" x="538.285156"/>
      <use xlink:href="#DejaVuSans-53" x="570.072266"/>
      <use xlink:href="#DejaVuSans-61" x="633.548828"/>
      <use xlink:href="#DejaVuSans-73" x="694.828125"/>
      <use xlink:href="#DejaVuSans-73" x="746.927734"/>
      <use xlink:href="#DejaVuSans-65" x="799.027344"/>
      <use xlink:href="#DejaVuSans-6e" x="860.550781"/>
      <use xlink:href="#DejaVuSans-61" x="923.929688"/>
     </g>
    </g>
   </g>
  </g>
 </g>
 <defs>
  <clipPath id="pb44a58f666">
   <rect x="57.6" y="41.472" width="357.12" height="266.112"/>
  </clipPath>
 </defs>
</svg>
