<?xml version="1.0" encoding="utf-8" standalone="no"?>
<!DOCTYPE svg PUBLIC "-//W3C//DTD SVG 1.1//EN"
  "http://www.w3.org/Graphics/SVG/1.1/DTD/svg11.dtd">
<svg xmlns:xlink="http://www.w3.org/1999/xlink" width="295.2pt" height="208.8pt" viewBox="0 0 295.2 208.8" xmlns="http://www.w3.org/2000/svg" version="1.1">
 <metadata>
  <rdf:RDF xmlns:dc="http://purl.org/dc/elements/1.1/" xmlns:cc="http://creativecommons.org/ns#" xmlns:rdf="http://www.w3.org/1999/02/22-rdf-syntax-ns#">
   <cc:Work>
    <dc:type rdf:resource="http://purl.org/dc/dcmitype/StillImage"/>
    <dc:date>2024-10-13T13:22:31.996938</dc:date>
    <dc:format>image/svg+xml</dc:format>
    <dc:creator>
     <cc:Agent>
      <dc:title>Matplotlib v3.9.0, https://matplotlib.org/</dc:title>
     </cc:Agent>
    </dc:creator>
   </cc:Work>
  </rdf:RDF>
 </metadata>
 <defs>
  <style type="text/css">*{stroke-linejoin: round; stroke-linecap: butt}</style>
 </defs>
 <g id="figure_1">
  <g id="patch_1">
   <path d="M 0 208.8 
L 295.2 208.8 
L 295.2 0 
L 0 0 
z
" style="fill: #ffffff"/>
  </g>
  <g id="axes_1">
   <g id="patch_2">
    <path d="M 36.9 185.832 
L 265.68 185.832 
L 265.68 25.056 
L 36.9 25.056 
z
" style="fill: #ffffff"/>
   </g>
   <g id="matplotlib.axis_1">
    <g id="xtick_1">
     <g id="line2d_1">
      <path d="M 47.299091 185.832 
L 47.299091 25.056 
" clip-path="url(#p83ea38190c)" style="fill: none; stroke: #b0b0b0; stroke-width: 0.8; stroke-linecap: square"/>
     </g>
     <g id="line2d_2">
      <defs>
       <path id="m248abb91ac" d="M 0 0 
L 0 3.5 
" style="stroke: #000000; stroke-width: 0.8"/>
      </defs>
      <g>
       <use xlink:href="#m248abb91ac" x="47.299091" y="185.832" style="stroke: #000000; stroke-width: 0.8"/>
      </g>
     </g>
     <g id="text_1">
      <!-- $\mathdefault{0}$ -->
      <g transform="translate(44.808423 199.750498) scale(0.1 -0.1)">
       <defs>
        <path id="CMR17-30" d="M 2688 2025 
C 2688 2416 2682 3080 2413 3591 
C 2176 4039 1798 4198 1466 4198 
C 1158 4198 768 4058 525 3597 
C 269 3118 243 2524 243 2025 
C 243 1661 250 1106 448 619 
C 723 -39 1216 -128 1466 -128 
C 1760 -128 2208 -7 2470 600 
C 2662 1042 2688 1559 2688 2025 
z
M 1466 -26 
C 1056 -26 813 325 723 812 
C 653 1188 653 1738 653 2096 
C 653 2588 653 2997 736 3387 
C 858 3929 1216 4096 1466 4096 
C 1728 4096 2067 3923 2189 3400 
C 2272 3036 2278 2607 2278 2096 
C 2278 1680 2278 1169 2202 792 
C 2067 95 1690 -26 1466 -26 
z
" transform="scale(0.015625)"/>
       </defs>
       <use xlink:href="#CMR17-30" transform="scale(0.996264)"/>
      </g>
     </g>
    </g>
    <g id="xtick_2">
     <g id="line2d_3">
      <path d="M 81.962727 185.832 
L 81.962727 25.056 
" clip-path="url(#p83ea38190c)" style="fill: none; stroke: #b0b0b0; stroke-width: 0.8; stroke-linecap: square"/>
     </g>
     <g id="line2d_4">
      <g>
       <use xlink:href="#m248abb91ac" x="81.962727" y="185.832" style="stroke: #000000; stroke-width: 0.8"/>
      </g>
     </g>
     <g id="text_2">
      <!-- $\mathdefault{5}$ -->
      <g transform="translate(79.47206 199.750498) scale(0.1 -0.1)">
       <defs>
        <path id="CMR17-35" d="M 730 3692 
C 794 3666 1056 3584 1325 3584 
C 1920 3584 2246 3911 2432 4100 
C 2432 4157 2432 4192 2394 4192 
C 2387 4192 2374 4192 2323 4163 
C 2099 4058 1837 3973 1517 3973 
C 1325 3973 1037 3999 723 4139 
C 653 4171 640 4171 634 4171 
C 602 4171 595 4164 595 4037 
L 595 2203 
C 595 2089 595 2057 659 2057 
C 691 2057 704 2070 736 2114 
C 941 2401 1222 2522 1542 2522 
C 1766 2522 2246 2382 2246 1289 
C 2246 1085 2246 715 2054 421 
C 1894 159 1645 25 1370 25 
C 947 25 518 320 403 814 
C 429 807 480 795 506 795 
C 589 795 749 840 749 1038 
C 749 1210 627 1280 506 1280 
C 358 1280 262 1190 262 1011 
C 262 454 704 -128 1382 -128 
C 2042 -128 2669 440 2669 1264 
C 2669 2030 2170 2624 1549 2624 
C 1222 2624 947 2503 730 2274 
L 730 3692 
z
" transform="scale(0.015625)"/>
       </defs>
       <use xlink:href="#CMR17-35" transform="scale(0.996264)"/>
      </g>
     </g>
    </g>
    <g id="xtick_3">
     <g id="line2d_5">
      <path d="M 116.626364 185.832 
L 116.626364 25.056 
" clip-path="url(#p83ea38190c)" style="fill: none; stroke: #b0b0b0; stroke-width: 0.8; stroke-linecap: square"/>
     </g>
     <g id="line2d_6">
      <g>
       <use xlink:href="#m248abb91ac" x="116.626364" y="185.832" style="stroke: #000000; stroke-width: 0.8"/>
      </g>
     </g>
     <g id="text_3">
      <!-- $\mathdefault{10}$ -->
      <g transform="translate(111.645028 199.750498) scale(0.1 -0.1)">
       <defs>
        <path id="CMR17-31" d="M 1702 4058 
C 1702 4192 1696 4192 1606 4192 
C 1357 3916 979 3827 621 3827 
C 602 3827 570 3827 563 3808 
C 557 3795 557 3782 557 3648 
C 755 3648 1088 3686 1344 3839 
L 1344 461 
C 1344 236 1331 160 781 160 
L 589 160 
L 589 0 
C 896 0 1216 0 1523 0 
C 1830 0 2150 0 2458 0 
L 2458 160 
L 2266 160 
C 1715 160 1702 230 1702 458 
L 1702 4058 
z
" transform="scale(0.015625)"/>
       </defs>
       <use xlink:href="#CMR17-31" transform="scale(0.996264)"/>
       <use xlink:href="#CMR17-30" transform="translate(45.690477 0) scale(0.996264)"/>
      </g>
     </g>
    </g>
    <g id="xtick_4">
     <g id="line2d_7">
      <path d="M 151.29 185.832 
L 151.29 25.056 
" clip-path="url(#p83ea38190c)" style="fill: none; stroke: #b0b0b0; stroke-width: 0.8; stroke-linecap: square"/>
     </g>
     <g id="line2d_8">
      <g>
       <use xlink:href="#m248abb91ac" x="151.29" y="185.832" style="stroke: #000000; stroke-width: 0.8"/>
      </g>
     </g>
     <g id="text_4">
      <!-- $\mathdefault{15}$ -->
      <g transform="translate(146.308665 199.750498) scale(0.1 -0.1)">
       <use xlink:href="#CMR17-31" transform="scale(0.996264)"/>
       <use xlink:href="#CMR17-35" transform="translate(45.690477 0) scale(0.996264)"/>
      </g>
     </g>
    </g>
    <g id="xtick_5">
     <g id="line2d_9">
      <path d="M 185.953636 185.832 
L 185.953636 25.056 
" clip-path="url(#p83ea38190c)" style="fill: none; stroke: #b0b0b0; stroke-width: 0.8; stroke-linecap: square"/>
     </g>
     <g id="line2d_10">
      <g>
       <use xlink:href="#m248abb91ac" x="185.953636" y="185.832" style="stroke: #000000; stroke-width: 0.8"/>
      </g>
     </g>
     <g id="text_5">
      <!-- $\mathdefault{20}$ -->
      <g transform="translate(180.972301 199.750498) scale(0.1 -0.1)">
       <defs>
        <path id="CMR17-32" d="M 2669 989 
L 2554 989 
C 2490 536 2438 459 2413 420 
C 2381 369 1920 369 1830 369 
L 602 369 
C 832 619 1280 1072 1824 1597 
C 2214 1967 2669 2402 2669 3035 
C 2669 3790 2067 4224 1395 4224 
C 691 4224 262 3604 262 3030 
C 262 2780 448 2748 525 2748 
C 589 2748 781 2787 781 3010 
C 781 3207 614 3264 525 3264 
C 486 3264 448 3258 422 3245 
C 544 3790 915 4058 1306 4058 
C 1862 4058 2227 3617 2227 3035 
C 2227 2479 1901 2000 1536 1584 
L 262 146 
L 262 0 
L 2515 0 
L 2669 989 
z
" transform="scale(0.015625)"/>
       </defs>
       <use xlink:href="#CMR17-32" transform="scale(0.996264)"/>
       <use xlink:href="#CMR17-30" transform="translate(45.690477 0) scale(0.996264)"/>
      </g>
     </g>
    </g>
    <g id="xtick_6">
     <g id="line2d_11">
      <path d="M 220.617273 185.832 
L 220.617273 25.056 
" clip-path="url(#p83ea38190c)" style="fill: none; stroke: #b0b0b0; stroke-width: 0.8; stroke-linecap: square"/>
     </g>
     <g id="line2d_12">
      <g>
       <use xlink:href="#m248abb91ac" x="220.617273" y="185.832" style="stroke: #000000; stroke-width: 0.8"/>
      </g>
     </g>
     <g id="text_6">
      <!-- $\mathdefault{25}$ -->
      <g transform="translate(215.635937 199.750498) scale(0.1 -0.1)">
       <use xlink:href="#CMR17-32" transform="scale(0.996264)"/>
       <use xlink:href="#CMR17-35" transform="translate(45.690477 0) scale(0.996264)"/>
      </g>
     </g>
    </g>
    <g id="xtick_7">
     <g id="line2d_13">
      <path d="M 255.280909 185.832 
L 255.280909 25.056 
" clip-path="url(#p83ea38190c)" style="fill: none; stroke: #b0b0b0; stroke-width: 0.8; stroke-linecap: square"/>
     </g>
     <g id="line2d_14">
      <g>
       <use xlink:href="#m248abb91ac" x="255.280909" y="185.832" style="stroke: #000000; stroke-width: 0.8"/>
      </g>
     </g>
     <g id="text_7">
      <!-- $\mathdefault{30}$ -->
      <g transform="translate(250.299574 199.750498) scale(0.1 -0.1)">
       <defs>
        <path id="CMR17-33" d="M 1414 2157 
C 1984 2157 2234 1662 2234 1090 
C 2234 320 1824 25 1453 25 
C 1114 25 563 194 390 693 
C 422 680 454 680 486 680 
C 640 680 755 782 755 948 
C 755 1133 614 1216 486 1216 
C 378 1216 211 1165 211 926 
C 211 335 787 -128 1466 -128 
C 2176 -128 2720 430 2720 1085 
C 2720 1707 2208 2157 1600 2227 
C 2086 2328 2554 2756 2554 3329 
C 2554 3820 2048 4179 1472 4179 
C 890 4179 378 3829 378 3329 
C 378 3110 544 3072 627 3072 
C 762 3072 877 3155 877 3321 
C 877 3486 762 3569 627 3569 
C 602 3569 570 3569 544 3557 
C 730 3959 1235 4032 1459 4032 
C 1683 4032 2106 3925 2106 3320 
C 2106 3143 2080 2828 1862 2550 
C 1670 2304 1453 2304 1242 2284 
C 1210 2284 1062 2269 1037 2269 
C 992 2263 966 2257 966 2208 
C 966 2163 973 2157 1101 2157 
L 1414 2157 
z
" transform="scale(0.015625)"/>
       </defs>
       <use xlink:href="#CMR17-33" transform="scale(0.996264)"/>
       <use xlink:href="#CMR17-30" transform="translate(45.690477 0) scale(0.996264)"/>
      </g>
     </g>
    </g>
    <g id="text_8">
     <!-- $Q [\unit{\per\angstrom}]$ -->
     <g transform="translate(135.50057 216.398913) scale(0.1 -0.1)">
      <defs>
       <path id="CMMI12-51" d="M 2726 45 
C 3827 490 4646 1663 4646 2829 
C 4646 3893 3955 4544 3059 4544 
C 1690 4544 307 3062 307 1573 
C 307 561 973 -128 1901 -128 
C 2118 -128 2330 -96 2534 -33 
C 2496 -411 2496 -442 2496 -562 
C 2496 -744 2496 -1216 3008 -1216 
C 3770 -1216 4051 -37 4051 2 
C 4051 39 4026 64 3994 64 
C 3955 64 3942 34 3923 -36 
C 3782 -429 3450 -654 3168 -654 
C 2842 -654 2758 -435 2726 45 
z
M 1574 77 
C 1069 252 826 787 826 1379 
C 826 1831 992 2689 1414 3340 
C 1888 4075 2522 4404 3021 4404 
C 3686 4404 4134 3862 4134 3024 
C 4134 2547 3910 948 2707 240 
C 2675 571 2586 960 2163 960 
C 1818 960 1523 609 1523 291 
C 1523 220 1549 123 1574 77 
z
M 2547 156 
C 2317 52 2118 12 1939 12 
C 1875 12 1651 12 1651 298 
C 1651 533 1875 832 2163 832 
C 2483 832 2554 611 2554 286 
C 2554 246 2554 194 2547 156 
z
" transform="scale(0.015625)"/>
       <path id="CMR17-5b" d="M 1504 -1600 
L 1504 -1377 
L 902 -1377 
L 902 4544 
L 1504 4544 
L 1504 4767 
L 678 4767 
L 678 -1600 
L 1504 -1600 
z
" transform="scale(0.015625)"/>
       <path id="CMR17-17" d="M 2771 3955 
C 2771 4275 2515 4518 2214 4518 
C 1914 4518 1658 4275 1658 3955 
C 1658 3635 1914 3392 2214 3392 
C 2515 3392 2771 3635 2771 3955 
z
M 2214 3494 
C 1946 3494 1773 3660 1773 3956 
C 1773 4256 1952 4416 2214 4416 
C 2483 4416 2656 4250 2656 3956 
C 2656 3654 2477 3494 2214 3494 
z
" transform="scale(0.015625)"/>
       <path id="CMR17-41" d="M 2323 4378 
C 2291 4461 2278 4480 2214 4480 
C 2150 4480 2138 4461 2106 4378 
L 749 566 
C 627 223 371 153 147 153 
L 147 -13 
C 262 0 518 0 640 0 
C 800 0 1056 0 1210 -13 
L 1210 153 
C 909 153 864 361 864 439 
C 864 497 877 530 890 569 
L 1229 1536 
L 2906 1536 
L 3290 442 
C 3322 365 3322 352 3322 327 
C 3322 153 3046 153 2925 153 
L 2925 0 
C 3110 0 3443 0 3642 0 
C 3808 0 4128 0 4282 -13 
L 4282 153 
C 3942 153 3827 153 3744 387 
L 2323 4378 
z
M 2067 3893 
L 2848 1702 
L 1286 1702 
L 2067 3893 
z
" transform="scale(0.015625)"/>
       <path id="CMSY10-0" d="M 4218 1472 
C 4326 1472 4442 1472 4442 1600 
C 4442 1728 4326 1728 4218 1728 
L 755 1728 
C 646 1728 531 1728 531 1600 
C 531 1472 646 1472 755 1472 
L 4218 1472 
z
" transform="scale(0.015625)"/>
       <path id="CMR17-5d" d="M 915 4767 
L 90 4767 
L 90 4544 
L 691 4544 
L 691 -1377 
L 90 -1377 
L 90 -1600 
L 915 -1600 
L 915 4767 
z
" transform="scale(0.015625)"/>
      </defs>
      <use xlink:href="#CMMI12-51" transform="scale(0.996264)"/>
      <use xlink:href="#CMR17-5b" transform="translate(77.260399 0) scale(0.996264)"/>
      <use xlink:href="#CMR17-17" transform="translate(102.131457 17.618744) scale(0.996264)"/>
      <use xlink:href="#CMR17-41" transform="translate(102.131457 0) scale(0.996264)"/>
      <use xlink:href="#CMSY10-0" transform="translate(171.203887 59.877267) scale(0.697382)"/>
      <use xlink:href="#CMR17-31" transform="translate(225.44488 59.877267) scale(0.697382)"/>
      <use xlink:href="#CMR17-5d" transform="translate(257.926194 0) scale(0.996264)"/>
     </g>
    </g>
   </g>
   <g id="matplotlib.axis_2">
    <g id="ytick_1">
     <g id="line2d_15">
      <path d="M 36.9 178.524 
L 265.68 178.524 
" clip-path="url(#p83ea38190c)" style="fill: none; stroke: #b0b0b0; stroke-width: 0.8; stroke-linecap: square"/>
     </g>
     <g id="line2d_16">
      <defs>
       <path id="mb5fa723720" d="M 0 0 
L -3.5 0 
" style="stroke: #000000; stroke-width: 0.8"/>
      </defs>
      <g>
       <use xlink:href="#mb5fa723720" x="36.9" y="178.524" style="stroke: #000000; stroke-width: 0.8"/>
      </g>
     </g>
     <g id="text_9">
      <!-- $\mathdefault{−0.10}$ -->
      <g transform="translate(4.439842 181.983249) scale(0.1 -0.1)">
       <defs>
        <path id="CMMI12-3a" d="M 1178 307 
C 1178 492 1024 619 870 619 
C 685 619 557 466 557 313 
C 557 128 710 0 864 0 
C 1050 0 1178 153 1178 307 
z
" transform="scale(0.015625)"/>
       </defs>
       <use xlink:href="#CMSY10-0" transform="scale(0.996264)"/>
       <use xlink:href="#CMR17-30" transform="translate(77.487468 0) scale(0.996264)"/>
       <use xlink:href="#CMMI12-3a" transform="translate(123.177945 0) scale(0.996264)"/>
       <use xlink:href="#CMR17-31" transform="translate(150.275122 0) scale(0.996264)"/>
       <use xlink:href="#CMR17-30" transform="translate(195.965599 0) scale(0.996264)"/>
      </g>
     </g>
    </g>
    <g id="ytick_2">
     <g id="line2d_17">
      <path d="M 36.9 141.984 
L 265.68 141.984 
" clip-path="url(#p83ea38190c)" style="fill: none; stroke: #b0b0b0; stroke-width: 0.8; stroke-linecap: square"/>
     </g>
     <g id="line2d_18">
      <g>
       <use xlink:href="#mb5fa723720" x="36.9" y="141.984" style="stroke: #000000; stroke-width: 0.8"/>
      </g>
     </g>
     <g id="text_10">
      <!-- $\mathdefault{−0.05}$ -->
      <g transform="translate(4.439842 145.443249) scale(0.1 -0.1)">
       <use xlink:href="#CMSY10-0" transform="scale(0.996264)"/>
       <use xlink:href="#CMR17-30" transform="translate(77.487468 0) scale(0.996264)"/>
       <use xlink:href="#CMMI12-3a" transform="translate(123.177945 0) scale(0.996264)"/>
       <use xlink:href="#CMR17-30" transform="translate(150.275122 0) scale(0.996264)"/>
       <use xlink:href="#CMR17-35" transform="translate(195.965599 0) scale(0.996264)"/>
      </g>
     </g>
    </g>
    <g id="ytick_3">
     <g id="line2d_19">
      <path d="M 36.9 105.444 
L 265.68 105.444 
" clip-path="url(#p83ea38190c)" style="fill: none; stroke: #b0b0b0; stroke-width: 0.8; stroke-linecap: square"/>
     </g>
     <g id="line2d_20">
      <g>
       <use xlink:href="#mb5fa723720" x="36.9" y="105.444" style="stroke: #000000; stroke-width: 0.8"/>
      </g>
     </g>
     <g id="text_11">
      <!-- $\mathdefault{0.00}$ -->
      <g transform="translate(12.188586 108.903249) scale(0.1 -0.1)">
       <use xlink:href="#CMR17-30" transform="scale(0.996264)"/>
       <use xlink:href="#CMMI12-3a" transform="translate(45.690477 0) scale(0.996264)"/>
       <use xlink:href="#CMR17-30" transform="translate(72.787654 0) scale(0.996264)"/>
       <use xlink:href="#CMR17-30" transform="translate(118.478131 0) scale(0.996264)"/>
      </g>
     </g>
    </g>
    <g id="ytick_4">
     <g id="line2d_21">
      <path d="M 36.9 68.904 
L 265.68 68.904 
" clip-path="url(#p83ea38190c)" style="fill: none; stroke: #b0b0b0; stroke-width: 0.8; stroke-linecap: square"/>
     </g>
     <g id="line2d_22">
      <g>
       <use xlink:href="#mb5fa723720" x="36.9" y="68.904" style="stroke: #000000; stroke-width: 0.8"/>
      </g>
     </g>
     <g id="text_12">
      <!-- $\mathdefault{0.05}$ -->
      <g transform="translate(12.188586 72.363249) scale(0.1 -0.1)">
       <use xlink:href="#CMR17-30" transform="scale(0.996264)"/>
       <use xlink:href="#CMMI12-3a" transform="translate(45.690477 0) scale(0.996264)"/>
       <use xlink:href="#CMR17-30" transform="translate(72.787654 0) scale(0.996264)"/>
       <use xlink:href="#CMR17-35" transform="translate(118.478131 0) scale(0.996264)"/>
      </g>
     </g>
    </g>
    <g id="ytick_5">
     <g id="line2d_23">
      <path d="M 36.9 32.364 
L 265.68 32.364 
" clip-path="url(#p83ea38190c)" style="fill: none; stroke: #b0b0b0; stroke-width: 0.8; stroke-linecap: square"/>
     </g>
     <g id="line2d_24">
      <g>
       <use xlink:href="#mb5fa723720" x="36.9" y="32.364" style="stroke: #000000; stroke-width: 0.8"/>
      </g>
     </g>
     <g id="text_13">
      <!-- $\mathdefault{0.10}$ -->
      <g transform="translate(12.188586 35.823249) scale(0.1 -0.1)">
       <use xlink:href="#CMR17-30" transform="scale(0.996264)"/>
       <use xlink:href="#CMMI12-3a" transform="translate(45.690477 0) scale(0.996264)"/>
       <use xlink:href="#CMR17-31" transform="translate(72.787654 0) scale(0.996264)"/>
       <use xlink:href="#CMR17-30" transform="translate(118.478131 0) scale(0.996264)"/>
      </g>
     </g>
    </g>
    <g id="text_14">
     <!-- I(Q) -->
     <g transform="translate(-2.050818 114.36889) rotate(-90) scale(0.1 -0.1)">
      <defs>
       <path id="CMSS17-49" d="M 1094 4416 
L 557 4416 
L 557 0 
L 1094 0 
L 1094 4416 
z
" transform="scale(0.015625)"/>
       <path id="CMSS17-28" d="M 1613 4768 
C 1267 4417 474 3601 474 1588 
C 474 -433 1267 -1243 1613 -1600 
L 2003 -1600 
C 1216 -784 960 357 960 1581 
C 960 2798 1203 3946 2003 4768 
L 1613 4768 
z
" transform="scale(0.015625)"/>
       <path id="CMSS17-51" d="M 3200 202 
C 3981 833 4096 1689 4096 2174 
C 4096 3501 3219 4497 2214 4497 
C 1210 4497 333 3497 333 2178 
C 333 847 1222 -128 2214 -128 
C 2438 -128 2630 -77 2765 -26 
L 3302 -832 
L 3930 -832 
L 3200 202 
z
M 2528 324 
C 2438 293 2330 273 2214 273 
C 1523 273 858 993 858 2178 
C 858 3357 1517 4096 2214 4096 
C 2918 4096 3571 3350 3571 2178 
C 3571 1771 3507 1089 2950 566 
L 2490 1210 
L 1939 1210 
L 2528 324 
z
" transform="scale(0.015625)"/>
       <path id="CMSS17-29" d="M 723 -1600 
C 1069 -1249 1862 -433 1862 1581 
C 1862 3601 1069 4411 723 4768 
L 333 4768 
C 1120 3952 1376 2811 1376 1588 
C 1376 370 1133 -778 333 -1600 
L 723 -1600 
z
" transform="scale(0.015625)"/>
      </defs>
      <use xlink:href="#CMSS17-49" transform="scale(0.996264)"/>
      <use xlink:href="#CMSS17-28" transform="translate(25.783926 0) scale(0.996264)"/>
      <use xlink:href="#CMSS17-51" transform="translate(62.21784 0) scale(0.996264)"/>
      <use xlink:href="#CMSS17-29" transform="translate(131.242095 0) scale(0.996264)"/>
     </g>
    </g>
   </g>
   <g id="line2d_25">
    <path d="M 48.856733 32.364 
L 49.374087 178.524 
L 49.891441 178.524 
L 50.408795 168.341661 
L 50.926148 132.324044 
L 51.960856 172.096461 
L 52.47821 174.634522 
L 52.995564 169.723414 
L 53.512918 166.248964 
L 54.030271 164.631806 
L 54.547625 164.337652 
L 55.064979 165.738968 
L 55.582333 167.676038 
L 56.099687 168.076739 
L 57.134394 164.947318 
L 57.651748 164.72673 
L 58.169102 165.630233 
L 58.686456 166.197257 
L 59.20381 165.668643 
L 61.790579 159.600891 
L 62.307933 157.300998 
L 63.34264 150.494175 
L 64.377348 141.391434 
L 65.412056 129.128553 
L 68.516179 86.392138 
L 69.033532 83.67044 
L 69.550886 83.900894 
L 70.585594 87.902095 
L 71.620301 92.814227 
L 72.655009 98.660498 
L 74.207071 105.825502 
L 74.724424 107.598541 
L 75.241778 108.406464 
L 75.759132 108.286251 
L 76.79384 106.77717 
L 77.311194 105.888133 
L 77.828547 104.560155 
L 78.345901 102.372957 
L 79.897963 94.124387 
L 80.93267 88.493635 
L 81.967378 81.627411 
L 82.484732 79.011532 
L 83.002086 77.323737 
L 83.519439 76.319976 
L 84.036793 75.703884 
L 84.554147 75.521854 
L 85.071501 76.090174 
L 85.588855 77.550606 
L 86.623562 82.154873 
L 88.175624 90.720137 
L 89.727685 98.928238 
L 90.762393 103.272015 
L 91.797101 106.847518 
L 92.831808 109.737865 
L 93.349162 110.812126 
L 93.866516 111.532807 
L 95.935931 113.457501 
L 96.970639 113.894871 
L 97.487993 114.122124 
L 98.005346 114.555389 
L 100.074762 116.983906 
L 102.144177 118.99335 
L 102.661531 119.246447 
L 103.696239 119.280849 
L 104.730946 119.105135 
L 105.2483 118.840299 
L 105.765654 118.331969 
L 106.800362 116.807974 
L 107.835069 115.041971 
L 109.387131 111.9208 
L 112.491254 105.242035 
L 113.525961 103.577698 
L 115.595377 101.28943 
L 116.11273 100.991324 
L 117.147438 100.861958 
L 119.734207 100.997939 
L 121.803622 101.399626 
L 122.83833 101.364979 
L 124.907745 100.980349 
L 128.529222 99.355121 
L 129.56393 99.271567 
L 131.115991 99.245569 
L 132.150699 99.681678 
L 134.220114 100.712189 
L 136.289529 102.686652 
L 138.358945 104.362333 
L 139.911006 105.722889 
L 142.497775 107.649953 
L 146.119252 110.227947 
L 149.223375 111.770468 
L 150.775437 112.250546 
L 151.810144 112.35102 
L 153.362206 112.212719 
L 154.396913 111.842691 
L 155.431621 111.255052 
L 156.466329 110.422825 
L 159.053098 108.001527 
L 162.674575 103.823527 
L 165.778697 101.105441 
L 167.848113 99.975949 
L 168.88282 99.692459 
L 171.46959 99.550205 
L 173.539005 100.041976 
L 174.573712 100.393678 
L 176.125774 101.265324 
L 179.229897 103.14864 
L 183.886081 106.365519 
L 185.955497 107.564623 
L 188.542266 108.698627 
L 190.611681 109.137181 
L 193.715804 109.163298 
L 195.785219 108.879718 
L 198.889342 108.154662 
L 206.132296 105.87445 
L 209.753773 104.486717 
L 211.823188 103.680257 
L 216.479372 102.242658 
L 218.548788 101.945291 
L 220.100849 101.888365 
L 222.687618 102.163261 
L 224.23968 102.571047 
L 227.343803 103.790393 
L 230.447926 105.448705 
L 232.517341 106.619187 
L 236.138818 108.396494 
L 237.690879 108.899763 
L 239.760294 109.364456 
L 241.312356 109.344731 
L 243.381771 109.047732 
L 245.451186 108.398247 
L 248.037956 107.19722 
L 252.176786 104.96199 
L 255.280909 103.522952 
L 255.280909 103.522952 
" clip-path="url(#p83ea38190c)" style="fill: none; stroke: #1f77b4; stroke-width: 1.5; stroke-linecap: square"/>
   </g>
   <g id="line2d_26">
    <path d="M 47.299091 32.364 
L 47.992364 32.364 
L 48.685636 157.339133 
L 49.378909 166.668869 
L 50.072182 168.270067 
L 51.458727 168.720254 
L 52.152 168.737237 
L 55.618363 168.183497 
L 57.698182 167.405963 
L 58.391455 167.019797 
L 59.084728 166.461007 
L 59.778 165.610682 
L 60.471273 164.228084 
L 61.164546 162.257037 
L 61.857818 159.642172 
L 62.55109 156.080652 
L 63.244364 151.651273 
L 63.937636 145.915113 
L 65.324182 130.336824 
L 68.097273 92.737623 
L 68.790545 87.010318 
L 69.483819 84.210918 
L 70.177091 84.824193 
L 71.563636 92.088699 
L 72.256909 96.200384 
L 73.643454 102.984038 
L 75.030001 106.448055 
L 75.723274 107.354071 
L 76.416546 106.653737 
L 77.109818 106.11555 
L 77.80309 103.904018 
L 78.496365 101.209326 
L 79.882909 93.90778 
L 81.269453 85.299619 
L 82.656 78.357266 
L 83.349272 76.247016 
L 84.042545 75.401651 
L 84.73582 75.475089 
L 86.122364 78.581559 
L 90.281999 100.85003 
L 90.975271 103.93976 
L 92.361819 108.603601 
L 94.441638 112.099483 
L 95.13491 112.656155 
L 95.828182 113.041657 
L 96.521454 114.069788 
L 97.214726 114.268773 
L 97.908001 115.07856 
L 98.601273 115.515141 
L 101.374362 118.562389 
L 102.760912 119.413209 
L 103.454184 119.533602 
L 104.147456 119.40846 
L 106.227272 117.940835 
L 106.920544 116.646212 
L 107.613816 115.859995 
L 108.307089 114.157248 
L 109.000361 113.040103 
L 109.693639 111.125289 
L 110.386911 109.932517 
L 111.080183 108.044688 
L 111.773455 106.993998 
L 112.466727 105.192333 
L 113.159999 104.354178 
L 113.853271 102.959502 
L 114.546543 102.583272 
L 115.933094 101.087777 
L 116.626366 100.518578 
L 117.319638 100.610872 
L 118.01291 100.193158 
L 118.706182 100.716824 
L 119.399454 100.715979 
L 120.092726 100.923571 
L 120.785998 100.65964 
L 121.47927 100.775277 
L 122.172548 101.370465 
L 122.86582 100.334903 
L 123.559093 100.867808 
L 124.252365 101.108607 
L 124.945637 100.318529 
L 125.638909 99.841197 
L 126.332181 100.090942 
L 127.025453 99.716172 
L 127.718725 99.574564 
L 128.411997 99.070619 
L 129.105275 99.301217 
L 129.798547 98.911848 
L 131.185091 98.9757 
L 131.878364 99.192524 
L 132.571636 99.201374 
L 133.264908 100.19909 
L 133.95818 100.181752 
L 134.651452 101.340193 
L 135.34473 101.700881 
L 136.731274 102.989287 
L 137.424546 103.375133 
L 138.117818 104.272359 
L 138.81109 104.661448 
L 139.504362 105.519487 
L 140.197635 105.715962 
L 140.890907 106.472262 
L 141.584185 107.481685 
L 142.277457 107.669972 
L 142.970729 107.684838 
L 143.664001 108.65158 
L 144.357273 108.612432 
L 145.050545 109.555797 
L 145.743817 109.931973 
L 146.437089 109.92518 
L 147.130361 110.991642 
L 148.516912 111.622762 
L 149.210184 111.413198 
L 149.903456 112.160552 
L 151.29 112.655563 
L 151.983272 112.411685 
L 152.676544 112.630175 
L 153.369816 112.519222 
L 154.063088 111.834229 
L 155.449632 111.569446 
L 156.142904 110.732288 
L 156.836177 109.606244 
L 158.222733 108.674553 
L 158.916005 107.930624 
L 159.609277 107.431253 
L 160.302549 106.254594 
L 160.995821 105.405261 
L 161.689093 105.087017 
L 162.382365 104.292379 
L 163.075638 103.202262 
L 163.76891 102.521018 
L 164.462182 101.547029 
L 167.23527 100.257183 
L 167.928542 99.655356 
L 168.621814 99.364631 
L 169.315086 98.626633 
L 170.008358 99.180745 
L 172.088187 99.613901 
L 172.781459 99.955488 
L 173.474731 99.992979 
L 174.168003 99.887832 
L 174.861275 99.971915 
L 175.554547 100.745819 
L 176.247819 101.138707 
L 176.941091 101.230091 
L 178.327635 102.586627 
L 179.020907 103.2978 
L 179.71418 103.448625 
L 180.407452 103.737107 
L 181.793996 104.946669 
L 182.487268 105.541898 
L 183.18054 105.660448 
L 183.873824 106.088369 
L 185.260368 107.375973 
L 185.95364 107.538953 
L 186.646913 107.571715 
L 187.340185 108.30364 
L 188.033457 108.263455 
L 188.726729 108.835656 
L 190.113273 109.063825 
L 190.806545 108.952587 
L 192.193089 109.494147 
L 192.886361 109.161592 
L 193.579633 109.222395 
L 194.272905 108.826272 
L 194.966177 109.066314 
L 195.659449 108.841993 
L 196.352721 108.810843 
L 197.046006 108.90401 
L 198.43255 108.024154 
L 199.125822 107.997466 
L 199.819094 107.726978 
L 200.512366 107.659216 
L 201.205638 107.469102 
L 202.592182 106.795528 
L 204.671999 106.162448 
L 205.365271 106.304073 
L 208.831631 104.630537 
L 209.524903 104.583469 
L 211.604732 103.512813 
L 212.298004 103.334065 
L 212.991276 103.563824 
L 213.684548 102.723653 
L 214.37782 102.836243 
L 215.071092 102.593058 
L 215.764364 102.050692 
L 216.457636 102.030211 
L 217.150908 101.710456 
L 217.84418 101.59155 
L 218.537452 101.727921 
L 219.230724 101.658619 
L 219.923997 101.945702 
L 220.617269 101.606992 
L 221.310541 101.81999 
L 222.003813 101.798163 
L 223.390369 102.406675 
L 224.083641 102.064254 
L 224.776913 103.158898 
L 225.470185 103.045358 
L 226.85673 103.451529 
L 227.550002 103.750828 
L 228.243274 104.467861 
L 228.936546 104.015584 
L 229.629818 105.006679 
L 230.32309 105.115012 
L 231.016362 105.770368 
L 231.709634 106.159063 
L 232.402906 106.832253 
L 233.096178 106.771398 
L 233.78945 107.29873 
L 235.175994 107.938456 
L 235.869279 108.089494 
L 236.562551 108.878063 
L 237.255823 108.678445 
L 237.949095 108.98595 
L 240.722183 109.329839 
L 241.415455 109.295603 
L 242.108727 109.376779 
L 242.802 108.989001 
L 243.495272 109.023461 
L 244.188544 108.682456 
L 244.881816 108.675495 
L 245.575088 108.470697 
L 246.26836 107.624021 
L 246.961632 107.666547 
L 247.654904 106.904214 
L 248.348176 106.592082 
L 249.04146 106.600969 
L 250.428005 105.806716 
L 251.121277 105.660896 
L 251.814549 104.839918 
L 253.894365 104.038256 
L 254.587637 103.504681 
L 255.280909 103.234812 
L 255.280909 103.234812 
" clip-path="url(#p83ea38190c)" style="fill: none; stroke-dasharray: 3.33,1.44; stroke-dashoffset: 0; stroke: #000000; stroke-width: 0.9"/>
   </g>
   <g id="line2d_27">
    <path d="M 61.164545 178.524 
L 61.164545 32.364 
" clip-path="url(#p83ea38190c)" style="fill: none; stroke-dasharray: 2,3.3; stroke-dashoffset: 0; stroke: #808080; stroke-width: 2"/>
   </g>
   <g id="patch_3">
    <path d="M 36.9 185.832 
L 36.9 25.056 
" style="fill: none; stroke: #000000; stroke-width: 0.8; stroke-linejoin: miter; stroke-linecap: square"/>
   </g>
   <g id="patch_4">
    <path d="M 265.68 185.832 
L 265.68 25.056 
" style="fill: none; stroke: #000000; stroke-width: 0.8; stroke-linejoin: miter; stroke-linecap: square"/>
   </g>
   <g id="patch_5">
    <path d="M 36.9 185.832 
L 265.68 185.832 
" style="fill: none; stroke: #000000; stroke-width: 0.8; stroke-linejoin: miter; stroke-linecap: square"/>
   </g>
   <g id="patch_6">
    <path d="M 36.9 25.056 
L 265.68 25.056 
" style="fill: none; stroke: #000000; stroke-width: 0.8; stroke-linejoin: miter; stroke-linecap: square"/>
   </g>
   <g id="legend_1">
    <g id="patch_7">
     <path d="M 138.593439 78.578772 
L 258.68 78.578772 
Q 260.68 78.578772 260.68 76.578772 
L 260.68 32.056 
Q 260.68 30.056 258.68 30.056 
L 138.593439 30.056 
Q 136.593439 30.056 136.593439 32.056 
L 136.593439 76.578772 
Q 136.593439 78.578772 138.593439 78.578772 
z
" style="fill: #ffffff; opacity: 0.8; stroke: #cccccc; stroke-linejoin: miter"/>
    </g>
    <g id="line2d_28">
     <path d="M 140.593439 37.556 
L 150.593439 37.556 
L 160.593439 37.556 
" style="fill: none; stroke: #1f77b4; stroke-width: 1.5; stroke-linecap: square"/>
    </g>
    <g id="text_15">
     <!-- JAXMD + Debye -->
     <g transform="translate(168.593439 41.056) scale(0.1 -0.1)">
      <defs>
       <path id="CMSS17-4a" d="M 2336 4384 
L 1811 4384 
L 1811 940 
C 1811 636 1683 261 1107 261 
C 781 261 506 414 333 604 
L 250 140 
C 646 -71 1011 -128 1280 -128 
C 1901 -128 2336 228 2336 920 
L 2336 4384 
z
" transform="scale(0.015625)"/>
       <path id="CMSS17-41" d="M 2272 4416 
L 1722 4416 
L 166 0 
L 653 0 
L 1101 1280 
L 2816 1280 
L 3270 0 
L 3827 0 
L 2272 4416 
z
M 2694 1637 
L 1222 1637 
C 1530 2528 1914 3638 1958 3925 
L 1965 3925 
C 2010 3663 2138 3281 2246 2956 
L 2694 1637 
z
" transform="scale(0.015625)"/>
       <path id="CMSS17-58" d="M 2214 2329 
L 3661 4416 
L 3072 4416 
L 1952 2762 
L 800 4416 
L 166 4416 
L 1690 2329 
L 83 0 
L 672 0 
L 1952 1941 
L 3277 0 
L 3910 0 
L 2214 2329 
z
" transform="scale(0.015625)"/>
       <path id="CMSS17-4d" d="M 3194 2371 
L 2886 1473 
C 2835 1307 2662 791 2624 587 
L 2618 587 
C 2598 715 2560 849 2458 1174 
C 2400 1365 2336 1562 2272 1741 
L 1325 4416 
L 576 4416 
L 576 0 
L 1075 0 
L 1075 3900 
L 1082 3900 
C 1082 3894 1139 3613 1530 2499 
L 2374 96 
L 2848 96 
L 3610 2231 
C 3661 2378 3821 2843 3891 3066 
C 3955 3257 4115 3728 4154 3913 
L 4160 3913 
L 4160 0 
L 4666 0 
L 4666 4416 
L 3923 4416 
L 3194 2371 
z
" transform="scale(0.015625)"/>
       <path id="CMSS17-44" d="M 570 4416 
L 570 0 
L 2144 0 
C 3194 0 4000 980 4000 2170 
C 4000 3398 3194 4416 2144 4416 
L 570 4416 
z
M 1094 357 
L 1094 4059 
L 2003 4059 
C 2861 4059 3475 3277 3475 2170 
C 3475 1107 2867 357 2003 357 
L 1094 357 
z
" transform="scale(0.015625)"/>
       <path id="CMSS17-2b" d="M 2451 1505 
L 4141 1505 
C 4230 1505 4339 1505 4339 1613 
C 4339 1728 4237 1728 4141 1728 
L 2451 1728 
L 2451 3413 
C 2451 3502 2451 3611 2342 3611 
C 2227 3611 2227 3509 2227 3413 
L 2227 1728 
L 531 1728 
C 442 1728 333 1728 333 1620 
C 333 1505 435 1505 531 1505 
L 2227 1505 
L 2227 -186 
C 2227 -275 2227 -384 2336 -384 
C 2451 -384 2451 -282 2451 -186 
L 2451 1505 
z
" transform="scale(0.015625)"/>
       <path id="CMSS17-65" d="M 2502 1377 
C 2502 1590 2490 2003 2285 2345 
C 2061 2713 1696 2816 1421 2816 
C 755 2816 192 2188 192 1375 
C 192 582 774 -64 1510 -64 
C 1798 -64 2150 19 2470 248 
C 2470 274 2458 414 2451 420 
C 2451 433 2432 630 2432 656 
C 2125 407 1773 325 1517 325 
C 1107 325 666 667 646 1377 
L 2502 1377 
z
M 698 1728 
C 781 2084 1062 2421 1421 2421 
C 1517 2421 1965 2421 2080 1728 
L 698 1728 
z
" transform="scale(0.015625)"/>
       <path id="CMSS17-62" d="M 954 4416 
L 480 4416 
L 480 -13 
L 966 -13 
L 966 274 
C 1210 38 1504 -64 1766 -64 
C 2381 -64 2880 549 2880 1352 
C 2880 2086 2496 2756 1926 2756 
C 1523 2756 1165 2591 954 2419 
L 954 4416 
z
M 966 2046 
C 1107 2222 1306 2368 1587 2368 
C 1965 2368 2394 2097 2394 1352 
C 2394 558 1882 325 1530 325 
C 1402 325 1267 356 1139 464 
C 966 615 966 709 966 797 
L 966 2046 
z
" transform="scale(0.015625)"/>
       <path id="CMSS17-79" d="M 2675 2752 
L 2176 2752 
C 1632 1294 1446 702 1434 383 
L 1427 383 
C 1408 696 1126 1460 902 2007 
L 602 2752 
L 83 2752 
L 1216 13 
C 1146 -178 1043 -465 1011 -529 
C 870 -885 774 -885 672 -885 
C 646 -885 442 -885 211 -809 
L 250 -1229 
C 410 -1261 570 -1280 685 -1280 
C 845 -1280 1165 -1280 1459 -497 
L 2675 2752 
z
" transform="scale(0.015625)"/>
      </defs>
      <use xlink:href="#CMSS17-4a" transform="scale(0.996264)"/>
      <use xlink:href="#CMSS17-41" transform="translate(44.121076 0) scale(0.996264)"/>
      <use xlink:href="#CMSS17-58" transform="translate(106.33893 0) scale(0.996264)"/>
      <use xlink:href="#CMSS17-4d" transform="translate(168.556785 0) scale(0.996264)"/>
      <use xlink:href="#CMSS17-44" transform="translate(250.232815 0) scale(0.996264)"/>
      <use xlink:href="#CMSS17-2b" transform="translate(349.00477 0) scale(0.996264)"/>
      <use xlink:href="#CMSS17-44" transform="translate(453.101817 0) scale(0.996264)"/>
      <use xlink:href="#CMSS17-65" transform="translate(520.644659 0) scale(0.996264)"/>
      <use xlink:href="#CMSS17-62" transform="translate(562.283481 0) scale(0.996264)"/>
      <use xlink:href="#CMSS17-79" transform="translate(607.88597 0) scale(0.996264)"/>
      <use xlink:href="#CMSS17-65" transform="translate(648.283658 0) scale(0.996264)"/>
     </g>
    </g>
    <g id="line2d_29">
     <path d="M 140.593439 51.493178 
L 150.593439 51.493178 
L 160.593439 51.493178 
" style="fill: none; stroke-dasharray: 3.33,1.44; stroke-dashoffset: 0; stroke: #000000; stroke-width: 0.9"/>
    </g>
    <g id="text_16">
     <!-- LAMMPS + Sassena -->
     <g transform="translate(168.593439 54.993178) scale(0.1 -0.1)">
      <defs>
       <path id="CMSS17-4c" d="M 1670 414 
C 1594 414 1517 414 1440 414 
L 1101 414 
L 1101 4416 
L 563 4416 
L 563 0 
L 3002 0 
L 3002 414 
L 1670 414 
z
" transform="scale(0.015625)"/>
       <path id="CMSS17-50" d="M 2106 1856 
C 2874 1856 3501 2453 3501 3158 
C 3501 3850 2899 4453 2067 4453 
L 570 4453 
L 570 0 
L 1107 0 
L 1107 1856 
L 2106 1856 
z
M 1926 4096 
C 2669 4096 2995 3627 2995 3157 
C 2995 2720 2694 2226 1926 2226 
L 1094 2226 
L 1094 4096 
L 1926 4096 
z
" transform="scale(0.015625)"/>
       <path id="CMSS17-53" d="M 2797 4169 
C 2515 4334 2208 4480 1690 4480 
C 864 4480 333 3879 333 3266 
C 333 3025 403 2753 653 2475 
C 902 2196 1184 2121 1542 2033 
C 1690 1994 1939 1924 1984 1906 
C 2342 1767 2515 1444 2515 1140 
C 2515 742 2202 318 1645 318 
C 1453 318 890 318 358 819 
L 269 318 
C 794 -64 1363 -128 1651 -128 
C 2438 -128 3002 488 3002 1186 
C 3002 1440 2925 1763 2656 2061 
C 2394 2347 2163 2410 1638 2549 
C 1338 2626 1146 2677 986 2873 
C 877 3013 819 3146 819 3317 
C 819 3673 1126 4060 1690 4060 
C 1971 4060 2336 4002 2707 3660 
L 2797 4169 
z
" transform="scale(0.015625)"/>
       <path id="CMSS17-61" d="M 2406 1791 
C 2406 2392 1978 2808 1402 2808 
C 1120 2808 813 2757 461 2553 
L 499 2135 
C 659 2248 934 2432 1395 2432 
C 1722 2432 1920 2180 1920 1782 
L 1920 1536 
C 896 1536 256 1238 256 726 
C 256 461 416 -64 947 -64 
C 1043 -64 1562 -64 1933 217 
L 1933 -19 
L 2406 -19 
L 2406 1791 
z
M 1920 816 
C 1920 701 1920 548 1728 434 
C 1562 325 1350 325 1261 325 
C 941 325 723 511 723 744 
C 723 1211 1722 1211 1920 1211 
L 1920 816 
z
" transform="scale(0.015625)"/>
       <path id="CMSS17-73" d="M 2061 2627 
C 1683 2807 1389 2807 1197 2807 
C 742 2807 198 2648 198 2003 
C 198 1359 902 1218 1094 1179 
C 1389 1122 1715 1058 1715 740 
C 1715 337 1254 337 1171 337 
C 915 337 563 407 243 638 
L 166 210 
C 531 0 883 -64 1178 -64 
C 1965 -64 2163 416 2163 781 
C 2163 1094 1984 1305 1862 1401 
C 1651 1568 1574 1587 1050 1696 
C 960 1709 646 1779 646 2066 
C 646 2432 1050 2432 1139 2432 
C 1555 2432 1811 2303 1984 2208 
L 2061 2627 
z
" transform="scale(0.015625)"/>
       <path id="CMSS17-6e" d="M 2618 1877 
C 2618 2283 2522 2816 1798 2816 
C 1389 2816 1120 2606 941 2389 
L 941 2758 
L 474 2758 
L 474 0 
L 960 0 
L 960 1559 
C 960 1964 1114 2428 1549 2428 
C 2112 2428 2131 2048 2131 1829 
L 2131 0 
L 2618 0 
L 2618 1877 
z
" transform="scale(0.015625)"/>
      </defs>
      <use xlink:href="#CMSS17-4c" transform="scale(0.996264)"/>
      <use xlink:href="#CMSS17-41" transform="translate(50.687105 0) scale(0.996264)"/>
      <use xlink:href="#CMSS17-4d" transform="translate(112.90496 0) scale(0.996264)"/>
      <use xlink:href="#CMSS17-4d" transform="translate(194.58099 0) scale(0.996264)"/>
      <use xlink:href="#CMSS17-50" transform="translate(276.25702 0) scale(0.996264)"/>
      <use xlink:href="#CMSS17-53" transform="translate(335.992606 0) scale(0.996264)"/>
      <use xlink:href="#CMSS17-2b" transform="translate(419.270235 0) scale(0.996264)"/>
      <use xlink:href="#CMSS17-53" transform="translate(523.367283 0) scale(0.996264)"/>
      <use xlink:href="#CMSS17-61" transform="translate(575.415799 0) scale(0.996264)"/>
      <use xlink:href="#CMSS17-73" transform="translate(620.33772 0) scale(0.996264)"/>
      <use xlink:href="#CMSS17-73" transform="translate(656.251262 0) scale(0.996264)"/>
      <use xlink:href="#CMSS17-65" transform="translate(692.164804 0) scale(0.996264)"/>
      <use xlink:href="#CMSS17-6e" transform="translate(733.803626 0) scale(0.996264)"/>
      <use xlink:href="#CMSS17-61" transform="translate(782.008569 0) scale(0.996264)"/>
     </g>
    </g>
    <g id="line2d_30">
     <path d="M 140.593439 69.141593 
L 150.593439 69.141593 
L 160.593439 69.141593 
" style="fill: none; stroke-dasharray: 2,3.3; stroke-dashoffset: 0; stroke: #808080; stroke-width: 2"/>
    </g>
    <g id="text_17">
     <!-- $Q = 2\unit{\per\angstrom}$ -->
     <g transform="translate(168.593439 72.641593) scale(0.1 -0.1)">
      <defs>
       <path id="CMR17-3d" d="M 4115 2017 
C 4211 2017 4307 2017 4307 2125 
C 4307 2240 4198 2240 4090 2240 
L 512 2240 
C 403 2240 294 2240 294 2125 
C 294 2017 390 2017 486 2017 
L 4115 2017 
z
M 4090 896 
C 4198 896 4307 896 4307 1011 
C 4307 1119 4211 1119 4115 1119 
L 486 1119 
C 390 1119 294 1119 294 1011 
C 294 896 403 896 512 896 
L 4090 896 
z
" transform="scale(0.015625)"/>
      </defs>
      <use xlink:href="#CMMI12-51" transform="scale(0.996264)"/>
      <use xlink:href="#CMR17-3d" transform="translate(104.934407 0) scale(0.996264)"/>
      <use xlink:href="#CMR17-32" transform="translate(204.323204 0) scale(0.996264)"/>
      <use xlink:href="#CMR17-17" transform="translate(250.013682 17.618744) scale(0.996264)"/>
      <use xlink:href="#CMR17-41" transform="translate(250.013682 0) scale(0.996264)"/>
      <use xlink:href="#CMSY10-0" transform="translate(319.086111 59.877267) scale(0.697382)"/>
      <use xlink:href="#CMR17-31" transform="translate(373.327105 59.877267) scale(0.697382)"/>
     </g>
    </g>
   </g>
  </g>
 </g>
 <defs>
  <clipPath id="p83ea38190c">
   <rect x="36.9" y="25.056" width="228.78" height="160.776"/>
  </clipPath>
 </defs>
</svg>
