<?xml version="1.0" encoding="utf-8" standalone="no"?>
<!DOCTYPE svg PUBLIC "-//W3C//DTD SVG 1.1//EN"
  "http://www.w3.org/Graphics/SVG/1.1/DTD/svg11.dtd">
<svg xmlns:xlink="http://www.w3.org/1999/xlink" width="360pt" height="288pt" viewBox="0 0 360 288" xmlns="http://www.w3.org/2000/svg" version="1.1">
 <metadata>
  <rdf:RDF xmlns:dc="http://purl.org/dc/elements/1.1/" xmlns:cc="http://creativecommons.org/ns#" xmlns:rdf="http://www.w3.org/1999/02/22-rdf-syntax-ns#">
   <cc:Work>
    <dc:type rdf:resource="http://purl.org/dc/dcmitype/StillImage"/>
    <dc:date>2024-10-13T16:47:33.121487</dc:date>
    <dc:format>image/svg+xml</dc:format>
    <dc:creator>
     <cc:Agent>
      <dc:title>Matplotlib v3.9.0, https://matplotlib.org/</dc:title>
     </cc:Agent>
    </dc:creator>
   </cc:Work>
  </rdf:RDF>
 </metadata>
 <defs>
  <style type="text/css">*{stroke-linejoin: round; stroke-linecap: butt}</style>
 </defs>
 <g id="figure_1">
  <g id="patch_1">
   <path d="M 0 288 
L 360 288 
L 360 0 
L 0 0 
z
" style="fill: #ffffff"/>
  </g>
  <g id="axes_1">
   <g id="patch_2">
    <path d="M 45 256.32 
L 324 256.32 
L 324 34.56 
L 45 34.56 
z
" style="fill: #ffffff"/>
   </g>
   <g id="matplotlib.axis_1">
    <g id="xtick_1">
     <g id="line2d_1">
      <path d="M 57.555 256.32 
L 57.555 34.56 
" clip-path="url(#p966780fa43)" style="fill: none; stroke: #b0b0b0; stroke-width: 0.8; stroke-linecap: square"/>
     </g>
     <g id="line2d_2">
      <defs>
       <path id="md0f0ce82f4" d="M 0 0 
L 0 3.5 
" style="stroke: #000000; stroke-width: 0.8"/>
      </defs>
      <g>
       <use xlink:href="#md0f0ce82f4" x="57.555" y="256.32" style="stroke: #000000; stroke-width: 0.8"/>
      </g>
     </g>
     <g id="text_1">
      <!-- $\mathdefault{0}$ -->
      <g transform="translate(55.064332 270.238498) scale(0.1 -0.1)">
       <defs>
        <path id="CMR17-30" d="M 2688 2025 
C 2688 2416 2682 3080 2413 3591 
C 2176 4039 1798 4198 1466 4198 
C 1158 4198 768 4058 525 3597 
C 269 3118 243 2524 243 2025 
C 243 1661 250 1106 448 619 
C 723 -39 1216 -128 1466 -128 
C 1760 -128 2208 -7 2470 600 
C 2662 1042 2688 1559 2688 2025 
z
M 1466 -26 
C 1056 -26 813 325 723 812 
C 653 1188 653 1738 653 2096 
C 653 2588 653 2997 736 3387 
C 858 3929 1216 4096 1466 4096 
C 1728 4096 2067 3923 2189 3400 
C 2272 3036 2278 2607 2278 2096 
C 2278 1680 2278 1169 2202 792 
C 2067 95 1690 -26 1466 -26 
z
" transform="scale(0.015625)"/>
       </defs>
       <use xlink:href="#CMR17-30" transform="scale(0.996264)"/>
      </g>
     </g>
    </g>
    <g id="xtick_2">
     <g id="line2d_3">
      <path d="M 108.282273 256.32 
L 108.282273 34.56 
" clip-path="url(#p966780fa43)" style="fill: none; stroke: #b0b0b0; stroke-width: 0.8; stroke-linecap: square"/>
     </g>
     <g id="line2d_4">
      <g>
       <use xlink:href="#md0f0ce82f4" x="108.282273" y="256.32" style="stroke: #000000; stroke-width: 0.8"/>
      </g>
     </g>
     <g id="text_2">
      <!-- $\mathdefault{2}$ -->
      <g transform="translate(105.791605 270.238498) scale(0.1 -0.1)">
       <defs>
        <path id="CMR17-32" d="M 2669 989 
L 2554 989 
C 2490 536 2438 459 2413 420 
C 2381 369 1920 369 1830 369 
L 602 369 
C 832 619 1280 1072 1824 1597 
C 2214 1967 2669 2402 2669 3035 
C 2669 3790 2067 4224 1395 4224 
C 691 4224 262 3604 262 3030 
C 262 2780 448 2748 525 2748 
C 589 2748 781 2787 781 3010 
C 781 3207 614 3264 525 3264 
C 486 3264 448 3258 422 3245 
C 544 3790 915 4058 1306 4058 
C 1862 4058 2227 3617 2227 3035 
C 2227 2479 1901 2000 1536 1584 
L 262 146 
L 262 0 
L 2515 0 
L 2669 989 
z
" transform="scale(0.015625)"/>
       </defs>
       <use xlink:href="#CMR17-32" transform="scale(0.996264)"/>
      </g>
     </g>
    </g>
    <g id="xtick_3">
     <g id="line2d_5">
      <path d="M 159.009545 256.32 
L 159.009545 34.56 
" clip-path="url(#p966780fa43)" style="fill: none; stroke: #b0b0b0; stroke-width: 0.8; stroke-linecap: square"/>
     </g>
     <g id="line2d_6">
      <g>
       <use xlink:href="#md0f0ce82f4" x="159.009545" y="256.32" style="stroke: #000000; stroke-width: 0.8"/>
      </g>
     </g>
     <g id="text_3">
      <!-- $\mathdefault{4}$ -->
      <g transform="translate(156.518878 270.238498) scale(0.1 -0.1)">
       <defs>
        <path id="CMR17-34" d="M 2150 4122 
C 2150 4256 2144 4256 2029 4256 
L 128 1254 
L 128 1088 
L 1779 1088 
L 1779 457 
C 1779 224 1766 160 1318 160 
L 1197 160 
L 1197 0 
C 1402 0 1747 0 1965 0 
C 2182 0 2528 0 2733 0 
L 2733 160 
L 2611 160 
C 2163 160 2150 224 2150 457 
L 2150 1088 
L 2803 1088 
L 2803 1254 
L 2150 1254 
L 2150 4122 
z
M 1798 3703 
L 1798 1254 
L 256 1254 
L 1798 3703 
z
" transform="scale(0.015625)"/>
       </defs>
       <use xlink:href="#CMR17-34" transform="scale(0.996264)"/>
      </g>
     </g>
    </g>
    <g id="xtick_4">
     <g id="line2d_7">
      <path d="M 209.736818 256.32 
L 209.736818 34.56 
" clip-path="url(#p966780fa43)" style="fill: none; stroke: #b0b0b0; stroke-width: 0.8; stroke-linecap: square"/>
     </g>
     <g id="line2d_8">
      <g>
       <use xlink:href="#md0f0ce82f4" x="209.736818" y="256.32" style="stroke: #000000; stroke-width: 0.8"/>
      </g>
     </g>
     <g id="text_4">
      <!-- $\mathdefault{6}$ -->
      <g transform="translate(207.246151 270.238498) scale(0.1 -0.1)">
       <defs>
        <path id="CMR17-36" d="M 678 2176 
C 678 3690 1395 4032 1811 4032 
C 1946 4032 2272 4009 2400 3776 
C 2298 3776 2106 3776 2106 3553 
C 2106 3381 2246 3323 2336 3323 
C 2394 3323 2566 3348 2566 3560 
C 2566 3954 2246 4179 1805 4179 
C 1043 4179 243 3390 243 1984 
C 243 253 966 -128 1478 -128 
C 2099 -128 2688 427 2688 1283 
C 2688 2081 2170 2662 1517 2662 
C 1126 2662 838 2407 678 1960 
L 678 2176 
z
M 1478 25 
C 691 25 691 1200 691 1436 
C 691 1896 909 2560 1504 2560 
C 1613 2560 1926 2560 2138 2120 
C 2253 1870 2253 1609 2253 1289 
C 2253 944 2253 690 2118 434 
C 1978 171 1773 25 1478 25 
z
" transform="scale(0.015625)"/>
       </defs>
       <use xlink:href="#CMR17-36" transform="scale(0.996264)"/>
      </g>
     </g>
    </g>
    <g id="xtick_5">
     <g id="line2d_9">
      <path d="M 260.464091 256.32 
L 260.464091 34.56 
" clip-path="url(#p966780fa43)" style="fill: none; stroke: #b0b0b0; stroke-width: 0.8; stroke-linecap: square"/>
     </g>
     <g id="line2d_10">
      <g>
       <use xlink:href="#md0f0ce82f4" x="260.464091" y="256.32" style="stroke: #000000; stroke-width: 0.8"/>
      </g>
     </g>
     <g id="text_5">
      <!-- $\mathdefault{8}$ -->
      <g transform="translate(257.973423 270.238498) scale(0.1 -0.1)">
       <defs>
        <path id="CMR17-38" d="M 1741 2264 
C 2144 2467 2554 2773 2554 3263 
C 2554 3841 1990 4179 1472 4179 
C 890 4179 378 3759 378 3180 
C 378 3021 416 2747 666 2505 
C 730 2442 998 2251 1171 2130 
C 883 1983 211 1634 211 934 
C 211 279 838 -128 1459 -128 
C 2144 -128 2720 362 2720 1010 
C 2720 1590 2330 1857 2074 2029 
L 1741 2264 
z
M 902 2822 
C 851 2854 595 3051 595 3351 
C 595 3739 998 4032 1459 4032 
C 1965 4032 2336 3676 2336 3262 
C 2336 2669 1670 2331 1638 2331 
C 1632 2331 1626 2331 1574 2370 
L 902 2822 
z
M 2080 1519 
C 2176 1449 2483 1240 2483 851 
C 2483 381 2010 25 1472 25 
C 890 25 448 438 448 940 
C 448 1443 838 1862 1280 2060 
L 2080 1519 
z
" transform="scale(0.015625)"/>
       </defs>
       <use xlink:href="#CMR17-38" transform="scale(0.996264)"/>
      </g>
     </g>
    </g>
    <g id="xtick_6">
     <g id="line2d_11">
      <path d="M 311.191364 256.32 
L 311.191364 34.56 
" clip-path="url(#p966780fa43)" style="fill: none; stroke: #b0b0b0; stroke-width: 0.8; stroke-linecap: square"/>
     </g>
     <g id="line2d_12">
      <g>
       <use xlink:href="#md0f0ce82f4" x="311.191364" y="256.32" style="stroke: #000000; stroke-width: 0.8"/>
      </g>
     </g>
     <g id="text_6">
      <!-- $\mathdefault{10}$ -->
      <g transform="translate(306.210028 270.238498) scale(0.1 -0.1)">
       <defs>
        <path id="CMR17-31" d="M 1702 4058 
C 1702 4192 1696 4192 1606 4192 
C 1357 3916 979 3827 621 3827 
C 602 3827 570 3827 563 3808 
C 557 3795 557 3782 557 3648 
C 755 3648 1088 3686 1344 3839 
L 1344 461 
C 1344 236 1331 160 781 160 
L 589 160 
L 589 0 
C 896 0 1216 0 1523 0 
C 1830 0 2150 0 2458 0 
L 2458 160 
L 2266 160 
C 1715 160 1702 230 1702 458 
L 1702 4058 
z
" transform="scale(0.015625)"/>
       </defs>
       <use xlink:href="#CMR17-31" transform="scale(0.996264)"/>
       <use xlink:href="#CMR17-30" transform="translate(45.690477 0) scale(0.996264)"/>
      </g>
     </g>
    </g>
    <g id="text_7">
     <!-- $r [\unit{\angstrom}]$ -->
     <g transform="translate(175.610857 284.855621) scale(0.1 -0.1)">
      <defs>
       <path id="CMMI12-72" d="M 2490 2612 
C 2291 2574 2189 2433 2189 2293 
C 2189 2139 2310 2088 2400 2088 
C 2579 2088 2726 2242 2726 2433 
C 2726 2638 2528 2816 2208 2816 
C 1952 2816 1658 2701 1389 2312 
C 1344 2650 1088 2816 832 2816 
C 582 2816 454 2625 378 2484 
C 269 2254 173 1871 173 1839 
C 173 1814 198 1782 243 1782 
C 294 1782 301 1788 339 1935 
C 435 2318 557 2689 813 2689 
C 966 2689 1011 2580 1011 2395 
C 1011 2254 947 2005 902 1807 
L 723 1118 
C 698 996 627 709 595 594 
C 550 428 480 128 480 96 
C 480 6 550 -64 646 -64 
C 717 -64 838 -19 877 109 
C 896 160 1133 1124 1171 1271 
C 1203 1411 1242 1546 1274 1686 
C 1299 1775 1325 1878 1344 1961 
C 1363 2018 1536 2331 1696 2472 
C 1773 2542 1939 2689 2202 2689 
C 2304 2689 2406 2670 2490 2612 
z
" transform="scale(0.015625)"/>
       <path id="CMR17-5b" d="M 1504 -1600 
L 1504 -1377 
L 902 -1377 
L 902 4544 
L 1504 4544 
L 1504 4767 
L 678 4767 
L 678 -1600 
L 1504 -1600 
z
" transform="scale(0.015625)"/>
       <path id="CMR17-17" d="M 2771 3955 
C 2771 4275 2515 4518 2214 4518 
C 1914 4518 1658 4275 1658 3955 
C 1658 3635 1914 3392 2214 3392 
C 2515 3392 2771 3635 2771 3955 
z
M 2214 3494 
C 1946 3494 1773 3660 1773 3956 
C 1773 4256 1952 4416 2214 4416 
C 2483 4416 2656 4250 2656 3956 
C 2656 3654 2477 3494 2214 3494 
z
" transform="scale(0.015625)"/>
       <path id="CMR17-41" d="M 2323 4378 
C 2291 4461 2278 4480 2214 4480 
C 2150 4480 2138 4461 2106 4378 
L 749 566 
C 627 223 371 153 147 153 
L 147 -13 
C 262 0 518 0 640 0 
C 800 0 1056 0 1210 -13 
L 1210 153 
C 909 153 864 361 864 439 
C 864 497 877 530 890 569 
L 1229 1536 
L 2906 1536 
L 3290 442 
C 3322 365 3322 352 3322 327 
C 3322 153 3046 153 2925 153 
L 2925 0 
C 3110 0 3443 0 3642 0 
C 3808 0 4128 0 4282 -13 
L 4282 153 
C 3942 153 3827 153 3744 387 
L 2323 4378 
z
M 2067 3893 
L 2848 1702 
L 1286 1702 
L 2067 3893 
z
" transform="scale(0.015625)"/>
       <path id="CMR17-5d" d="M 915 4767 
L 90 4767 
L 90 4544 
L 691 4544 
L 691 -1377 
L 90 -1377 
L 90 -1600 
L 915 -1600 
L 915 4767 
z
" transform="scale(0.015625)"/>
      </defs>
      <use xlink:href="#CMMI12-72" transform="scale(0.996264)"/>
      <use xlink:href="#CMR17-5b" transform="translate(46.670612 0) scale(0.996264)"/>
      <use xlink:href="#CMR17-17" transform="translate(71.541671 17.618744) scale(0.996264)"/>
      <use xlink:href="#CMR17-41" transform="translate(71.541671 0) scale(0.996264)"/>
      <use xlink:href="#CMR17-5d" transform="translate(140.6141 0) scale(0.996264)"/>
     </g>
    </g>
   </g>
   <g id="matplotlib.axis_2">
    <g id="ytick_1">
     <g id="line2d_13">
      <path d="M 45 246.24 
L 324 246.24 
" clip-path="url(#p966780fa43)" style="fill: none; stroke: #b0b0b0; stroke-width: 0.8; stroke-linecap: square"/>
     </g>
     <g id="line2d_14">
      <defs>
       <path id="m726c54c6b8" d="M 0 0 
L -3.5 0 
" style="stroke: #000000; stroke-width: 0.8"/>
      </defs>
      <g>
       <use xlink:href="#m726c54c6b8" x="45" y="246.24" style="stroke: #000000; stroke-width: 0.8"/>
      </g>
     </g>
     <g id="text_8">
      <!-- 0.00 -->
      <g transform="translate(20.288586 249.699249) scale(0.1 -0.1)">
       <defs>
        <path id="CMSS17-30" d="M 2758 2044 
C 2758 2405 2752 3077 2490 3596 
C 2227 4096 1805 4229 1504 4229 
C 1069 4229 698 3975 506 3570 
C 301 3146 243 2709 243 2044 
C 243 1589 262 1031 493 543 
C 755 5 1197 -128 1498 -128 
C 1894 -128 2278 81 2496 518 
C 2720 974 2758 1474 2758 2044 
z
M 1498 261 
C 1011 261 864 811 819 995 
C 742 1310 730 1614 730 2114 
C 730 2506 730 2948 851 3297 
C 998 3701 1254 3840 1498 3840 
C 1971 3840 2125 3372 2176 3208 
C 2272 2873 2272 2481 2272 2114 
C 2272 1526 2272 261 1498 261 
z
" transform="scale(0.015625)"/>
        <path id="CMSS17-2e" d="M 1088 510 
L 576 510 
L 576 0 
L 1088 0 
L 1088 510 
z
" transform="scale(0.015625)"/>
       </defs>
       <use xlink:href="#CMSS17-30" transform="scale(0.996264)"/>
       <use xlink:href="#CMSS17-2e" transform="translate(46.843624 0) scale(0.996264)"/>
       <use xlink:href="#CMSS17-30" transform="translate(72.867828 0) scale(0.996264)"/>
       <use xlink:href="#CMSS17-30" transform="translate(119.711452 0) scale(0.996264)"/>
      </g>
     </g>
    </g>
    <g id="ytick_2">
     <g id="line2d_15">
      <path d="M 45 221.04 
L 324 221.04 
" clip-path="url(#p966780fa43)" style="fill: none; stroke: #b0b0b0; stroke-width: 0.8; stroke-linecap: square"/>
     </g>
     <g id="line2d_16">
      <g>
       <use xlink:href="#m726c54c6b8" x="45" y="221.04" style="stroke: #000000; stroke-width: 0.8"/>
      </g>
     </g>
     <g id="text_9">
      <!-- 1.00 -->
      <g transform="translate(20.288586 224.499249) scale(0.1 -0.1)">
       <defs>
        <path id="CMSS17-31" d="M 1818 4288 
L 1696 4288 
C 1350 3940 947 3890 538 3890 
L 538 3520 
C 723 3520 1024 3520 1325 3667 
L 1325 369 
L 570 369 
L 570 0 
L 2573 0 
L 2573 369 
L 1818 369 
L 1818 4288 
z
" transform="scale(0.015625)"/>
       </defs>
       <use xlink:href="#CMSS17-31" transform="scale(0.996264)"/>
       <use xlink:href="#CMSS17-2e" transform="translate(46.843624 0) scale(0.996264)"/>
       <use xlink:href="#CMSS17-30" transform="translate(72.867828 0) scale(0.996264)"/>
       <use xlink:href="#CMSS17-30" transform="translate(119.711452 0) scale(0.996264)"/>
      </g>
     </g>
    </g>
    <g id="ytick_3">
     <g id="line2d_17">
      <path d="M 45 195.84 
L 324 195.84 
" clip-path="url(#p966780fa43)" style="fill: none; stroke: #b0b0b0; stroke-width: 0.8; stroke-linecap: square"/>
     </g>
     <g id="line2d_18">
      <g>
       <use xlink:href="#m726c54c6b8" x="45" y="195.84" style="stroke: #000000; stroke-width: 0.8"/>
      </g>
     </g>
     <g id="text_10">
      <!-- 2.00 -->
      <g transform="translate(20.288586 199.299249) scale(0.1 -0.1)">
       <defs>
        <path id="CMSS17-32" d="M 1651 1357 
C 1830 1541 2099 1764 2285 1987 
C 2464 2204 2701 2511 2701 2957 
C 2701 3657 2227 4288 1421 4288 
C 787 4288 422 3893 250 3274 
L 499 2929 
C 640 3510 838 3880 1338 3880 
C 1888 3880 2195 3433 2195 2942 
C 2195 2355 1747 1901 1408 1563 
C 1030 1187 659 804 301 408 
L 301 0 
L 2701 0 
L 2701 433 
L 1613 433 
C 1536 433 1459 433 1382 433 
L 742 433 
L 742 439 
L 1651 1357 
z
" transform="scale(0.015625)"/>
       </defs>
       <use xlink:href="#CMSS17-32" transform="scale(0.996264)"/>
       <use xlink:href="#CMSS17-2e" transform="translate(46.843624 0) scale(0.996264)"/>
       <use xlink:href="#CMSS17-30" transform="translate(72.867828 0) scale(0.996264)"/>
       <use xlink:href="#CMSS17-30" transform="translate(119.711452 0) scale(0.996264)"/>
      </g>
     </g>
    </g>
    <g id="ytick_4">
     <g id="line2d_19">
      <path d="M 45 170.64 
L 324 170.64 
" clip-path="url(#p966780fa43)" style="fill: none; stroke: #b0b0b0; stroke-width: 0.8; stroke-linecap: square"/>
     </g>
     <g id="line2d_20">
      <g>
       <use xlink:href="#m726c54c6b8" x="45" y="170.64" style="stroke: #000000; stroke-width: 0.8"/>
      </g>
     </g>
     <g id="text_11">
      <!-- 3.00 -->
      <g transform="translate(20.288586 174.099249) scale(0.1 -0.1)">
       <defs>
        <path id="CMSS17-33" d="M 1005 2025 
L 1440 2025 
C 2042 2025 2214 1507 2214 1146 
C 2214 653 1933 267 1472 267 
C 1114 267 608 444 320 912 
C 275 691 275 678 250 526 
C 550 88 1037 -128 1485 -128 
C 2214 -128 2752 473 2752 1138 
C 2752 1638 2400 2057 1920 2215 
C 2304 2424 2586 2816 2586 3273 
C 2586 3805 2093 4229 1491 4229 
C 941 4229 512 3892 333 3530 
C 378 3468 493 3284 550 3189 
C 691 3562 1056 3840 1485 3840 
C 1843 3840 2080 3607 2080 3271 
C 2080 2923 1856 2543 1478 2455 
C 1453 2455 1056 2417 1005 2411 
L 1005 2025 
z
" transform="scale(0.015625)"/>
       </defs>
       <use xlink:href="#CMSS17-33" transform="scale(0.996264)"/>
       <use xlink:href="#CMSS17-2e" transform="translate(46.843624 0) scale(0.996264)"/>
       <use xlink:href="#CMSS17-30" transform="translate(72.867828 0) scale(0.996264)"/>
       <use xlink:href="#CMSS17-30" transform="translate(119.711452 0) scale(0.996264)"/>
      </g>
     </g>
    </g>
    <g id="ytick_5">
     <g id="line2d_21">
      <path d="M 45 145.44 
L 324 145.44 
" clip-path="url(#p966780fa43)" style="fill: none; stroke: #b0b0b0; stroke-width: 0.8; stroke-linecap: square"/>
     </g>
     <g id="line2d_22">
      <g>
       <use xlink:href="#m726c54c6b8" x="45" y="145.44" style="stroke: #000000; stroke-width: 0.8"/>
      </g>
     </g>
     <g id="text_12">
      <!-- 4.00 -->
      <g transform="translate(20.288586 148.899249) scale(0.1 -0.1)">
       <defs>
        <path id="CMSS17-34" d="M 2253 1088 
L 2835 1088 
L 2835 1477 
L 2253 1477 
L 2253 4192 
L 1690 4192 
L 166 1477 
L 166 1088 
L 1747 1088 
L 1747 0 
L 2253 0 
L 2253 1088 
z
M 659 1477 
C 1030 2127 1766 3439 1766 3885 
L 1766 1477 
L 659 1477 
z
" transform="scale(0.015625)"/>
       </defs>
       <use xlink:href="#CMSS17-34" transform="scale(0.996264)"/>
       <use xlink:href="#CMSS17-2e" transform="translate(46.843624 0) scale(0.996264)"/>
       <use xlink:href="#CMSS17-30" transform="translate(72.867828 0) scale(0.996264)"/>
       <use xlink:href="#CMSS17-30" transform="translate(119.711452 0) scale(0.996264)"/>
      </g>
     </g>
    </g>
    <g id="ytick_6">
     <g id="line2d_23">
      <path d="M 45 120.24 
L 324 120.24 
" clip-path="url(#p966780fa43)" style="fill: none; stroke: #b0b0b0; stroke-width: 0.8; stroke-linecap: square"/>
     </g>
     <g id="line2d_24">
      <g>
       <use xlink:href="#m726c54c6b8" x="45" y="120.24" style="stroke: #000000; stroke-width: 0.8"/>
      </g>
     </g>
     <g id="text_13">
      <!-- 5.00 -->
      <g transform="translate(20.288586 123.699249) scale(0.1 -0.1)">
       <defs>
        <path id="CMSS17-35" d="M 934 3752 
L 2502 3752 
L 2502 4160 
L 467 4160 
L 467 1781 
L 896 1781 
C 1011 2046 1248 2240 1555 2240 
C 1843 2240 2163 1989 2163 1266 
C 2163 493 1709 267 1376 267 
C 966 267 589 512 422 851 
L 218 499 
C 512 49 992 -128 1376 -128 
C 2118 -128 2701 497 2701 1253 
C 2701 2030 2182 2629 1562 2629 
C 1338 2629 1120 2553 934 2399 
L 934 3752 
z
" transform="scale(0.015625)"/>
       </defs>
       <use xlink:href="#CMSS17-35" transform="scale(0.996264)"/>
       <use xlink:href="#CMSS17-2e" transform="translate(46.843624 0) scale(0.996264)"/>
       <use xlink:href="#CMSS17-30" transform="translate(72.867828 0) scale(0.996264)"/>
       <use xlink:href="#CMSS17-30" transform="translate(119.711452 0) scale(0.996264)"/>
      </g>
     </g>
    </g>
    <g id="ytick_7">
     <g id="line2d_25">
      <path d="M 45 95.04 
L 324 95.04 
" clip-path="url(#p966780fa43)" style="fill: none; stroke: #b0b0b0; stroke-width: 0.8; stroke-linecap: square"/>
     </g>
     <g id="line2d_26">
      <g>
       <use xlink:href="#m726c54c6b8" x="45" y="95.04" style="stroke: #000000; stroke-width: 0.8"/>
      </g>
     </g>
     <g id="text_14">
      <!-- 6.00 -->
      <g transform="translate(20.288586 98.499249) scale(0.1 -0.1)">
       <defs>
        <path id="CMSS17-36" d="M 2496 4101 
C 2227 4210 2035 4229 1856 4229 
C 1024 4229 250 3368 250 2006 
C 250 265 986 -128 1510 -128 
C 1798 -128 2086 -39 2362 280 
C 2643 617 2752 898 2752 1389 
C 2752 2179 2362 2880 1779 2880 
C 1357 2880 992 2657 768 2376 
C 832 3258 1254 3840 1862 3840 
C 2029 3840 2246 3816 2496 3710 
L 2496 4101 
z
M 774 1369 
C 774 1420 774 1452 781 1548 
C 781 2045 1069 2491 1536 2491 
C 1837 2491 1990 2332 2106 2135 
C 2240 1886 2246 1650 2246 1388 
C 2246 1140 2246 891 2099 637 
C 1978 439 1818 267 1510 267 
C 902 267 800 1114 774 1369 
z
" transform="scale(0.015625)"/>
       </defs>
       <use xlink:href="#CMSS17-36" transform="scale(0.996264)"/>
       <use xlink:href="#CMSS17-2e" transform="translate(46.843624 0) scale(0.996264)"/>
       <use xlink:href="#CMSS17-30" transform="translate(72.867828 0) scale(0.996264)"/>
       <use xlink:href="#CMSS17-30" transform="translate(119.711452 0) scale(0.996264)"/>
      </g>
     </g>
    </g>
    <g id="ytick_8">
     <g id="line2d_27">
      <path d="M 45 69.84 
L 324 69.84 
" clip-path="url(#p966780fa43)" style="fill: none; stroke: #b0b0b0; stroke-width: 0.8; stroke-linecap: square"/>
     </g>
     <g id="line2d_28">
      <g>
       <use xlink:href="#m726c54c6b8" x="45" y="69.84" style="stroke: #000000; stroke-width: 0.8"/>
      </g>
     </g>
     <g id="text_15">
      <!-- 7.00 -->
      <g transform="translate(20.288586 73.299249) scale(0.1 -0.1)">
       <defs>
        <path id="CMSS17-37" d="M 1389 3776 
C 1466 3776 1542 3776 1619 3776 
L 2355 3776 
C 1440 2711 915 1365 915 -32 
L 1427 -32 
C 1427 1323 1875 2696 2752 3795 
L 2752 4209 
L 250 4209 
L 250 3776 
L 1389 3776 
z
" transform="scale(0.015625)"/>
       </defs>
       <use xlink:href="#CMSS17-37" transform="scale(0.996264)"/>
       <use xlink:href="#CMSS17-2e" transform="translate(46.843624 0) scale(0.996264)"/>
       <use xlink:href="#CMSS17-30" transform="translate(72.867828 0) scale(0.996264)"/>
       <use xlink:href="#CMSS17-30" transform="translate(119.711452 0) scale(0.996264)"/>
      </g>
     </g>
    </g>
    <g id="ytick_9">
     <g id="line2d_29">
      <path d="M 45 44.64 
L 324 44.64 
" clip-path="url(#p966780fa43)" style="fill: none; stroke: #b0b0b0; stroke-width: 0.8; stroke-linecap: square"/>
     </g>
     <g id="line2d_30">
      <g>
       <use xlink:href="#m726c54c6b8" x="45" y="44.64" style="stroke: #000000; stroke-width: 0.8"/>
      </g>
     </g>
     <g id="text_16">
      <!-- 8.00 -->
      <g transform="translate(20.288586 48.099249) scale(0.1 -0.1)">
       <defs>
        <path id="CMSS17-38" d="M 1933 2222 
C 2419 2380 2669 2760 2669 3134 
C 2669 3722 2157 4229 1504 4229 
C 826 4229 333 3708 333 3144 
C 333 2780 576 2403 1069 2241 
C 442 1997 250 1512 250 1149 
C 250 446 819 -128 1498 -128 
C 2202 -128 2752 455 2752 1138 
C 2752 1557 2502 2000 1933 2222 
z
M 1504 2432 
C 1075 2432 787 2712 787 3136 
C 787 3566 1075 3840 1504 3840 
C 1901 3840 2214 3591 2214 3136 
C 2214 2687 1907 2432 1504 2432 
z
M 1504 267 
C 1139 267 749 517 749 1156 
C 749 1813 1184 2043 1498 2043 
C 1843 2043 2253 1800 2253 1156 
C 2253 491 1830 267 1504 267 
z
" transform="scale(0.015625)"/>
       </defs>
       <use xlink:href="#CMSS17-38" transform="scale(0.996264)"/>
       <use xlink:href="#CMSS17-2e" transform="translate(46.843624 0) scale(0.996264)"/>
       <use xlink:href="#CMSS17-30" transform="translate(72.867828 0) scale(0.996264)"/>
       <use xlink:href="#CMSS17-30" transform="translate(119.711452 0) scale(0.996264)"/>
      </g>
     </g>
    </g>
    <g id="text_17">
     <!-- $g(r)$ -->
     <g transform="translate(13.797926 154.254761) rotate(-90) scale(0.1 -0.1)">
      <defs>
       <path id="CMMI12-67" d="M 2163 811 
C 2138 709 2125 683 2042 588 
C 1779 249 1510 128 1312 128 
C 1101 128 902 294 902 734 
C 902 1073 1094 1788 1235 2076 
C 1421 2433 1709 2689 1978 2689 
C 2400 2689 2483 2165 2483 2127 
L 2464 2037 
L 2163 811 
z
M 2560 2395 
C 2477 2580 2298 2816 1978 2816 
C 1280 2816 486 1941 486 990 
C 486 326 890 0 1299 0 
C 1638 0 1939 268 2054 396 
L 1914 -171 
C 1824 -516 1786 -674 1555 -894 
C 1293 -1152 1050 -1152 909 -1152 
C 717 -1152 557 -1139 397 -1089 
C 602 -1033 653 -858 653 -789 
C 653 -689 576 -588 435 -588 
C 282 -588 115 -714 115 -922 
C 115 -1180 378 -1280 922 -1280 
C 1747 -1280 2176 -753 2259 -410 
L 2970 2435 
C 2989 2511 2989 2524 2989 2536 
C 2989 2625 2918 2695 2822 2695 
C 2669 2695 2579 2567 2560 2395 
z
" transform="scale(0.015625)"/>
       <path id="CMR17-28" d="M 1958 -1561 
C 1958 -1555 1958 -1542 1939 -1523 
C 1645 -1224 858 -407 858 1581 
C 858 3569 1632 4379 1946 4697 
C 1946 4704 1958 4717 1958 4736 
C 1958 4755 1939 4768 1914 4768 
C 1843 4768 1299 4296 986 3594 
C 666 2887 576 2199 576 1588 
C 576 1128 621 351 1005 -471 
C 1312 -1135 1837 -1600 1914 -1600 
C 1946 -1600 1958 -1587 1958 -1561 
z
" transform="scale(0.015625)"/>
       <path id="CMR17-29" d="M 1683 1581 
C 1683 2040 1638 2817 1254 3639 
C 947 4303 422 4768 346 4768 
C 326 4768 301 4761 301 4729 
C 301 4717 307 4710 314 4697 
C 621 4378 1402 3568 1402 1584 
C 1402 -407 627 -1217 314 -1537 
C 307 -1549 301 -1556 301 -1568 
C 301 -1600 326 -1600 346 -1600 
C 416 -1600 960 -1128 1274 -426 
C 1594 281 1683 969 1683 1581 
z
" transform="scale(0.015625)"/>
      </defs>
      <use xlink:href="#CMMI12-67" transform="scale(0.996264)"/>
      <use xlink:href="#CMR17-28" transform="translate(50.285489 0) scale(0.996264)"/>
      <use xlink:href="#CMMI12-72" transform="translate(85.566257 0) scale(0.996264)"/>
      <use xlink:href="#CMR17-29" transform="translate(132.236869 0) scale(0.996264)"/>
     </g>
    </g>
   </g>
   <g id="line2d_31">
    <path d="M 58.506136 95.04 
L 95.283409 95.014634 
L 95.9175 44.64 
L 96.551591 94.962837 
L 99.087955 94.610908 
L 100.990227 93.554405 
L 102.258409 92.481166 
L 103.526591 90.719731 
L 105.428864 87.253645 
L 107.331136 82.71871 
L 108.599318 79.228391 
L 109.233409 77.697603 
L 109.8675 75.293617 
L 110.501591 73.830164 
L 111.135682 72.01507 
L 111.769773 69.828 
L 112.403864 68.631276 
L 114.306136 64.208858 
L 115.574318 62.773253 
L 116.208409 61.949233 
L 116.8425 61.338433 
L 118.110682 61.430577 
L 118.744773 61.335183 
L 120.012955 62.317456 
L 120.647045 62.980955 
L 121.915227 65.123191 
L 123.183409 67.062513 
L 123.8175 68.378681 
L 124.451591 69.260918 
L 126.353864 72.757866 
L 126.987955 73.212603 
L 127.622045 74.04164 
L 128.256136 74.598989 
L 128.890227 75.323522 
L 129.524318 75.543939 
L 130.158409 76.383023 
L 130.7925 76.161948 
L 132.060682 76.350326 
L 132.694773 76.458188 
L 135.865227 75.641977 
L 136.499318 75.012331 
L 137.133409 74.765051 
L 137.7675 74.267814 
L 139.035682 73.720391 
L 140.303864 72.69531 
L 140.937955 72.11856 
L 141.572045 71.921036 
L 142.206136 71.318803 
L 142.840227 70.892718 
L 143.474318 70.16933 
L 144.7425 69.444806 
L 146.010682 68.556024 
L 146.644773 68.311851 
L 147.278864 67.945451 
L 148.547045 67.523971 
L 149.815227 66.583237 
L 150.449318 66.754389 
L 151.083409 66.57165 
L 152.985682 66.475636 
L 154.253864 66.672594 
L 154.887955 66.999073 
L 155.522045 67.15162 
L 156.156136 67.436274 
L 157.424318 67.772211 
L 158.058409 68.108942 
L 158.6925 68.086406 
L 159.960682 68.730915 
L 160.594773 68.908763 
L 161.228864 69.279922 
L 161.862955 69.183974 
L 162.497045 69.42213 
L 163.765227 69.652153 
L 164.399318 69.526395 
L 165.033409 69.624163 
L 171.374318 69.175403 
L 172.008409 69.353355 
L 172.6425 69.124148 
L 173.910682 69.349289 
L 177.081136 69.122106 
L 177.715227 69.322402 
L 178.349318 69.394348 
L 178.983409 69.286825 
L 179.6175 69.482508 
L 180.251591 69.522332 
L 180.885682 69.331837 
L 181.519773 69.529255 
L 183.422045 69.701393 
L 184.056136 69.617175 
L 186.5925 70.110189 
L 187.226591 70.010904 
L 189.762955 70.112505 
L 190.397045 70.41308 
L 191.031136 70.113242 
L 191.665227 70.429202 
L 192.299318 70.468876 
L 192.933409 70.361375 
L 194.201591 70.496807 
L 194.835682 70.393237 
L 196.103864 70.3907 
L 196.737955 70.344055 
L 198.006136 70.407757 
L 199.274318 70.279211 
L 199.908409 70.161658 
L 200.5425 70.323099 
L 201.176591 70.300618 
L 202.444773 70.100791 
L 203.712955 70.21309 
L 204.347045 70.075854 
L 206.883409 70.049598 
L 207.5175 69.920109 
L 208.785682 70.0456 
L 213.858409 70.022925 
L 214.4925 69.897754 
L 215.126591 70.038076 
L 215.760682 69.911702 
L 216.394773 69.901733 
L 217.028864 70.128572 
L 217.662955 69.930056 
L 224.637955 70.066618 
L 225.906136 69.953199 
L 227.174318 69.96847 
L 227.808409 70.046503 
L 229.076591 69.896342 
L 229.710682 69.870916 
L 230.978864 69.956299 
L 231.612955 69.849118 
L 232.247045 69.894413 
L 232.881136 69.769981 
L 233.515227 69.898572 
L 237.953864 69.697758 
L 239.222045 69.801581 
L 239.856136 69.630812 
L 241.124318 69.664316 
L 242.3925 69.715018 
L 244.928864 69.602822 
L 246.197045 69.739994 
L 246.831136 69.598805 
L 252.537955 69.754326 
L 253.172045 69.653078 
L 253.806136 69.685733 
L 255.074318 69.587662 
L 255.708409 69.805471 
L 256.3425 69.653937 
L 256.976591 69.783454 
L 257.610682 69.633635 
L 258.244773 69.708873 
L 258.878864 69.656725 
L 260.781136 69.853434 
L 261.415227 69.756722 
L 262.683409 69.809874 
L 263.951591 69.787138 
L 264.585682 69.905997 
L 265.853864 69.758198 
L 266.487955 69.937682 
L 268.390227 69.828446 
L 269.024318 69.936822 
L 272.828864 69.866622 
L 274.097045 69.922003 
L 274.731136 69.867318 
L 275.365227 69.967339 
L 277.2675 69.935226 
L 278.535682 69.944067 
L 283.608409 69.933479 
L 284.2425 70.041856 
L 285.510682 69.899624 
L 286.144773 70.007724 
L 287.412955 69.932684 
L 288.047045 69.996471 
L 288.681136 69.897209 
L 289.315227 69.952758 
L 289.949318 69.895758 
L 290.583409 69.991768 
L 291.2175 69.832911 
L 293.753864 69.885483 
L 294.387955 69.765885 
L 295.022045 69.898599 
L 296.290227 69.799537 
L 296.924318 69.916936 
L 301.362955 69.809489 
L 309.606136 69.866366 
L 310.240227 69.796109 
L 310.874318 69.842007 
L 310.874318 69.842007 
" clip-path="url(#p966780fa43)" style="fill: none; stroke: #1f77b4; stroke-width: 1.5; stroke-linecap: square"/>
   </g>
   <g id="line2d_32">
    <path d="M 57.681818 95.04 
L 95.727273 94.994438 
L 95.980909 44.64 
L 96.234545 94.968566 
L 98.01 94.777983 
L 99.024545 94.541573 
L 100.292727 94.00327 
L 101.307273 93.319965 
L 102.575455 92.060834 
L 103.59 90.664023 
L 104.858182 88.439096 
L 105.872727 86.338399 
L 108.916364 78.447593 
L 110.945455 72.783412 
L 112.720909 68.261712 
L 114.496364 64.706682 
L 115.003636 63.809402 
L 116.525455 62.120965 
L 117.793636 61.621862 
L 118.300909 61.516128 
L 119.061818 61.789937 
L 120.583636 63.062091 
L 121.851818 64.800279 
L 122.866364 66.461292 
L 124.895455 69.945856 
L 125.656364 71.271111 
L 127.431818 73.677057 
L 129.207273 75.221787 
L 129.968182 75.67488 
L 131.997273 76.113819 
L 133.772727 75.974723 
L 134.28 75.762681 
L 134.787273 75.6714 
L 135.548182 75.323112 
L 137.323636 74.487542 
L 144.171818 69.869786 
L 145.947273 68.657564 
L 147.215455 67.948675 
L 148.23 67.435388 
L 148.990909 67.119283 
L 150.766364 66.624104 
L 151.527273 66.506222 
L 153.556364 66.521851 
L 154.570909 66.799671 
L 155.078182 66.939111 
L 155.585455 67.103967 
L 160.658182 68.972464 
L 162.18 69.280872 
L 162.687273 69.384924 
L 166.999091 69.524804 
L 168.774545 69.478334 
L 170.803636 69.315626 
L 171.564545 69.270204 
L 176.13 69.177435 
L 183.231818 69.662779 
L 189.319091 70.250407 
L 191.348182 70.350131 
L 191.855455 70.377918 
L 193.377273 70.421284 
L 194.138182 70.41648 
L 196.167273 70.406669 
L 215.697273 69.964433 
L 220.262727 69.991176 
L 220.77 69.994782 
L 222.291818 70.003035 
L 229.647273 69.913001 
L 230.661818 69.870282 
L 232.690909 69.829434 
L 235.734545 69.765314 
L 250.699091 69.660108 
L 256.786364 69.710315 
L 258.561818 69.723091 
L 278.345455 69.939854 
L 280.628182 69.92732 
L 283.418182 69.953063 
L 285.193636 69.936034 
L 311.318182 69.787069 
L 311.318182 69.787069 
" clip-path="url(#p966780fa43)" style="fill: none; stroke-dasharray: 5.55,2.4; stroke-dashoffset: 0; stroke: #000000; stroke-width: 1.5"/>
   </g>
   <g id="line2d_33">
    <path d="M 58.506136 170.64 
L 81.333409 170.64 
L 81.9675 44.64 
L 82.601591 170.64 
L 94.015227 170.578888 
L 94.649318 170.430079 
L 95.283409 169.993179 
L 95.9175 169.131163 
L 96.551591 167.28636 
L 97.185682 164.073791 
L 97.819773 159.955694 
L 100.356136 139.176488 
L 100.990227 135.521579 
L 101.624318 133.492181 
L 102.258409 132.998259 
L 102.8925 133.771524 
L 103.526591 134.824267 
L 104.160682 136.926712 
L 107.965227 152.227579 
L 109.233409 156.320946 
L 111.135682 160.018914 
L 111.769773 161.217938 
L 113.672045 163.380845 
L 114.306136 163.762165 
L 114.940227 164.387532 
L 116.8425 165.216317 
L 117.476591 165.355635 
L 118.744773 165.325292 
L 120.012955 165.108533 
L 120.647045 164.715738 
L 121.915227 164.119907 
L 123.183409 162.852117 
L 125.085682 160.39185 
L 126.353864 157.919884 
L 126.987955 156.262846 
L 127.622045 155.004997 
L 130.158409 147.619739 
L 130.7925 145.161572 
L 133.328864 138.170726 
L 135.865227 133.933379 
L 136.499318 134.159298 
L 137.133409 134.012101 
L 137.7675 133.739416 
L 138.401591 133.871282 
L 139.035682 134.14289 
L 139.669773 134.221769 
L 140.303864 134.810059 
L 140.937955 135.158831 
L 141.572045 135.905288 
L 142.206136 136.060917 
L 142.840227 137.036093 
L 145.376591 139.260396 
L 146.644773 140.59436 
L 147.912955 141.792249 
L 149.181136 142.75408 
L 149.815227 143.539583 
L 151.083409 144.378391 
L 151.7175 144.646901 
L 152.351591 145.149165 
L 152.985682 145.429794 
L 154.253864 145.656642 
L 155.522045 146.005829 
L 156.790227 146.070907 
L 157.424318 146.060164 
L 158.058409 145.912238 
L 159.960682 146.176812 
L 160.594773 146.333287 
L 161.228864 146.010752 
L 162.497045 146.049976 
L 163.131136 145.887715 
L 163.765227 145.907514 
L 164.399318 145.733278 
L 165.033409 145.746936 
L 165.6675 145.932276 
L 168.203864 145.932455 
L 168.837955 146.085661 
L 170.106136 145.857392 
L 172.008409 145.970443 
L 172.6425 145.876244 
L 173.276591 145.920735 
L 173.910682 146.130081 
L 174.544773 146.121675 
L 175.178864 145.852922 
L 175.812955 145.916315 
L 176.447045 146.1027 
L 177.081136 145.754209 
L 177.715227 145.948018 
L 178.349318 145.832912 
L 178.983409 145.922046 
L 179.6175 145.755001 
L 180.251591 145.73243 
L 181.519773 145.457024 
L 182.153864 145.68972 
L 183.422045 145.549531 
L 184.690227 145.497222 
L 185.324318 145.564518 
L 185.958409 145.317181 
L 186.5925 145.406058 
L 187.226591 145.20291 
L 189.128864 145.348606 
L 189.762955 145.15863 
L 191.031136 145.223295 
L 191.665227 145.098452 
L 194.835682 145.135396 
L 195.469773 145.040736 
L 196.737955 145.083175 
L 197.372045 145.281211 
L 198.006136 145.097146 
L 198.640227 145.311717 
L 199.274318 145.209994 
L 201.176591 145.389704 
L 202.444773 145.407326 
L 206.883409 145.942677 
L 207.5175 145.79807 
L 208.151591 145.916674 
L 208.785682 145.894251 
L 209.419773 146.13432 
L 210.053864 145.993593 
L 213.224318 146.003341 
L 213.858409 146.216313 
L 214.4925 146.084708 
L 215.126591 146.111429 
L 216.394773 145.981332 
L 218.297045 146.105777 
L 220.199318 145.784846 
L 220.833409 146.034403 
L 221.4675 145.868442 
L 222.735682 145.858289 
L 225.906136 145.595559 
L 230.344773 145.346011 
L 232.247045 145.178509 
L 232.881136 145.350746 
L 233.515227 145.182978 
L 241.758409 145.019984 
L 242.3925 145.194141 
L 243.660682 144.931199 
L 246.197045 145.124636 
L 251.269773 145.171912 
L 251.903864 145.247014 
L 252.537955 145.170317 
L 253.172045 145.3518 
L 253.806136 145.396591 
L 254.440227 145.23117 
L 255.074318 145.370099 
L 255.708409 145.245695 
L 258.244773 145.378575 
L 259.512955 145.364965 
L 260.781136 145.513975 
L 261.415227 145.373121 
L 262.049318 145.505827 
L 263.3175 145.501814 
L 264.585682 145.723443 
L 265.219773 145.586201 
L 265.853864 145.609516 
L 266.487955 145.512041 
L 267.756136 145.626274 
L 269.658409 145.585363 
L 270.2925 145.676158 
L 272.194773 145.60814 
L 272.828864 145.692569 
L 274.097045 145.648768 
L 274.731136 145.68052 
L 275.365227 145.504074 
L 276.633409 145.6561 
L 277.901591 145.603652 
L 281.072045 145.579552 
L 281.706136 145.513809 
L 282.340227 145.613383 
L 284.2425 145.55789 
L 297.558409 145.375504 
L 298.826591 145.385857 
L 299.460682 145.330272 
L 300.728864 145.404895 
L 301.997045 145.450783 
L 302.631136 145.3813 
L 303.265227 145.479279 
L 303.899318 145.356143 
L 307.703864 145.374303 
L 309.606136 145.463737 
L 310.874318 145.446227 
L 310.874318 145.446227 
" clip-path="url(#p966780fa43)" style="fill: none; stroke: #ff7f0e; stroke-width: 1.5; stroke-linecap: square"/>
   </g>
   <g id="line2d_34">
    <path d="M 57.681818 170.64 
L 81.523636 170.64 
L 81.777273 44.64 
L 82.030909 170.64 
L 94.459091 170.534462 
L 94.966364 170.330363 
L 95.473636 169.89021 
L 95.980909 169.050503 
L 96.488182 167.619849 
L 96.995455 165.490184 
L 97.756364 160.91689 
L 99.024545 150.440034 
L 100.546364 138.811762 
L 101.053636 136.294466 
L 101.560909 134.675798 
L 101.814545 134.041486 
L 102.068182 133.713419 
L 102.575455 133.619334 
L 102.829091 133.851107 
L 103.59 135.448923 
L 104.097273 137.016046 
L 104.858182 139.898998 
L 108.155455 152.641436 
L 109.423636 156.249799 
L 110.438182 158.59484 
L 111.199091 160.049889 
L 112.213636 161.616216 
L 113.735455 163.274597 
L 115.003636 164.227155 
L 116.271818 164.822957 
L 117.032727 165.081835 
L 118.554545 165.191251 
L 120.076364 164.903686 
L 121.344545 164.306584 
L 122.866364 163.141696 
L 124.388182 161.267305 
L 125.402727 159.688635 
L 127.178182 155.958816 
L 128.446364 152.601219 
L 129.968182 148.034512 
L 132.504545 140.327835 
L 134.533636 136.107904 
L 135.294545 135.090523 
L 136.562727 134.104712 
L 137.830909 133.926715 
L 138.338182 133.994765 
L 140.113636 134.719538 
L 142.903636 136.796548 
L 143.664545 137.461046 
L 145.186364 138.888414 
L 146.708182 140.362863 
L 149.244545 142.786079 
L 149.751818 143.211811 
L 150.512727 143.795167 
L 152.541818 144.980034 
L 155.839091 145.837869 
L 157.868182 145.99346 
L 161.419091 145.977813 
L 161.926364 145.965045 
L 163.448182 145.909643 
L 164.209091 145.923401 
L 165.223636 145.897537 
L 171.564545 146.000431 
L 173.847273 146.032732 
L 175.369091 145.99028 
L 177.905455 145.947159 
L 179.427273 145.866244 
L 180.949091 145.747756 
L 192.87 145.130932 
L 202.761818 145.477096 
L 204.283636 145.59608 
L 206.312727 145.740961 
L 210.370909 145.986943 
L 212.4 146.032016 
L 213.668182 146.045473 
L 214.936364 146.03317 
L 215.697273 146.04442 
L 232.437273 145.264777 
L 246.894545 145.088607 
L 248.162727 145.104614 
L 252.981818 145.225152 
L 253.742727 145.237102 
L 256.786364 145.322665 
L 258.054545 145.376752 
L 258.815455 145.388136 
L 274.540909 145.617537 
L 278.599091 145.592998 
L 293.31 145.406886 
L 294.578182 145.415631 
L 302.187273 145.387161 
L 311.318182 145.413028 
L 311.318182 145.413028 
" clip-path="url(#p966780fa43)" style="fill: none; stroke-dasharray: 5.55,2.4; stroke-dashoffset: 0; stroke: #000000; stroke-width: 1.5"/>
   </g>
   <g id="line2d_35">
    <path d="M 58.506136 246.24 
L 117.476591 246.219888 
L 118.110682 246.097227 
L 118.744773 245.757831 
L 119.378864 244.893862 
L 120.012955 242.449771 
L 120.647045 238.203413 
L 121.281136 231.39198 
L 122.549318 210.746712 
L 123.8175 188.725479 
L 124.451591 179.095984 
L 125.085682 173.759698 
L 125.719773 171.472907 
L 126.353864 171.658548 
L 126.987955 174.508704 
L 128.256136 182.118844 
L 130.158409 197.175318 
L 130.7925 202.319394 
L 132.060682 210.472125 
L 133.328864 216.693322 
L 135.231136 222.120289 
L 135.865227 222.930284 
L 136.499318 223.928938 
L 137.133409 224.670784 
L 137.7675 225.117074 
L 138.401591 225.817231 
L 139.035682 225.652549 
L 139.669773 226.330724 
L 140.303864 226.529215 
L 140.937955 226.228044 
L 141.572045 226.945851 
L 142.206136 226.518314 
L 142.840227 226.659077 
L 143.474318 226.416341 
L 144.108409 225.896022 
L 145.376591 225.737309 
L 146.010682 226.018663 
L 146.644773 225.093129 
L 147.278864 225.343873 
L 149.181136 224.59832 
L 149.815227 224.003978 
L 150.449318 223.879718 
L 151.7175 223.187057 
L 152.351591 223.685277 
L 152.985682 223.139524 
L 153.619773 222.85659 
L 154.253864 222.77804 
L 155.522045 221.756312 
L 156.156136 222.049775 
L 156.790227 220.955471 
L 157.424318 220.768705 
L 158.058409 220.713761 
L 158.6925 221.015185 
L 159.960682 220.236485 
L 160.594773 220.366798 
L 161.228864 220.275844 
L 161.862955 219.85051 
L 163.131136 219.581762 
L 163.765227 219.799894 
L 164.399318 218.988377 
L 165.033409 219.080804 
L 165.6675 218.723475 
L 166.301591 219.144187 
L 166.935682 219.294462 
L 167.569773 219.100011 
L 168.203864 219.084298 
L 168.837955 218.768938 
L 170.740227 219.109609 
L 172.008409 218.722114 
L 172.6425 219.268486 
L 173.276591 218.798866 
L 173.910682 218.81844 
L 174.544773 219.224368 
L 175.178864 218.982467 
L 175.812955 219.022259 
L 176.447045 219.293927 
L 177.715227 219.559618 
L 178.349318 219.309436 
L 178.983409 219.756477 
L 179.6175 219.531695 
L 180.251591 219.43648 
L 180.885682 219.808712 
L 181.519773 219.948014 
L 182.153864 220.282382 
L 182.787955 220.161253 
L 183.422045 220.350418 
L 184.056136 219.836521 
L 185.324318 220.570386 
L 186.5925 220.955369 
L 187.226591 220.415047 
L 187.860682 221.516369 
L 188.494773 221.210856 
L 189.128864 221.116765 
L 190.397045 221.520496 
L 191.031136 221.558216 
L 191.665227 221.897461 
L 192.933409 221.846056 
L 193.5675 221.93147 
L 194.201591 222.313179 
L 195.469773 222.475933 
L 196.103864 222.462534 
L 196.737955 222.928452 
L 197.372045 222.625021 
L 198.006136 222.887188 
L 198.640227 222.692116 
L 199.908409 223.067045 
L 200.5425 222.990435 
L 201.176591 223.24954 
L 201.810682 223.124143 
L 202.444773 222.874541 
L 203.078864 223.101588 
L 203.712955 222.848093 
L 204.347045 222.877991 
L 204.981136 223.051111 
L 206.249318 222.606395 
L 206.883409 222.572702 
L 207.5175 222.358994 
L 208.151591 222.460966 
L 208.785682 222.101079 
L 209.419773 222.243526 
L 210.053864 221.829393 
L 211.322045 221.91122 
L 211.956136 221.488147 
L 212.590227 221.660908 
L 213.224318 221.488984 
L 213.858409 221.446277 
L 214.4925 221.089875 
L 215.760682 221.195733 
L 216.394773 221.125525 
L 217.028864 220.90389 
L 218.931136 220.801674 
L 219.565227 220.753482 
L 220.199318 220.504803 
L 221.4675 220.594405 
L 222.101591 220.43095 
L 222.735682 220.645261 
L 224.003864 220.011388 
L 224.637955 220.51856 
L 225.272045 220.138264 
L 225.906136 220.450447 
L 227.174318 220.249191 
L 227.808409 220.048803 
L 228.4425 220.446822 
L 229.076591 220.193506 
L 229.710682 220.282687 
L 230.344773 220.203164 
L 230.978864 220.302573 
L 232.881136 220.116473 
L 233.515227 220.391874 
L 234.149318 220.182352 
L 235.4175 220.251297 
L 236.051591 220.104134 
L 236.685682 220.453688 
L 238.587955 220.662792 
L 239.856136 220.622484 
L 240.490227 220.757689 
L 241.124318 220.64091 
L 242.3925 220.748961 
L 243.026591 220.893571 
L 244.294773 220.718438 
L 245.562955 221.168327 
L 246.831136 220.933732 
L 248.099318 221.205819 
L 248.733409 221.01053 
L 249.3675 221.081867 
L 250.001591 220.963191 
L 251.269773 221.248802 
L 253.806136 221.188424 
L 255.708409 221.33284 
L 256.3425 221.219196 
L 256.976591 221.312233 
L 258.244773 221.220176 
L 258.878864 221.376196 
L 260.781136 221.251996 
L 261.415227 221.352031 
L 262.049318 221.256604 
L 262.683409 221.522375 
L 263.3175 221.253616 
L 263.951591 221.313248 
L 264.585682 221.217616 
L 266.487955 221.384995 
L 267.122045 221.140139 
L 267.756136 221.089089 
L 268.390227 221.416816 
L 269.658409 221.164596 
L 270.2925 221.229286 
L 270.926591 221.055726 
L 271.560682 221.168085 
L 272.194773 221.025627 
L 273.462955 221.09634 
L 274.731136 221.085212 
L 275.365227 220.901149 
L 275.999318 221.217914 
L 276.633409 220.970225 
L 277.2675 220.871662 
L 277.901591 221.020431 
L 278.535682 220.865866 
L 279.169773 221.013067 
L 280.437955 221.141967 
L 281.072045 220.945933 
L 281.706136 221.103569 
L 282.340227 220.946485 
L 282.974318 221.12198 
L 283.608409 221.002318 
L 285.510682 221.178924 
L 286.778864 220.927703 
L 287.412955 220.917501 
L 288.047045 221.101491 
L 288.681136 220.913107 
L 289.315227 221.127466 
L 291.851591 221.088098 
L 292.485682 221.123922 
L 293.119773 220.935239 
L 293.753864 220.99164 
L 294.387955 221.19425 
L 295.022045 221.004155 
L 296.924318 221.082592 
L 297.558409 220.953643 
L 298.826591 221.112701 
L 299.460682 221.128258 
L 300.728864 220.895216 
L 301.997045 221.093461 
L 303.265227 220.998018 
L 303.899318 221.135234 
L 306.435682 221.086171 
L 307.703864 221.108606 
L 309.606136 220.989497 
L 310.240227 221.11861 
L 310.874318 221.078792 
L 310.874318 221.078792 
" clip-path="url(#p966780fa43)" style="fill: none; stroke: #2ca02c; stroke-width: 1.5; stroke-linecap: square"/>
   </g>
   <g id="line2d_36">
    <path d="M 57.681818 246.24 
L 118.047273 246.170718 
L 118.554545 245.988187 
L 119.061818 245.539907 
L 119.569091 244.492028 
L 120.076364 242.510914 
L 120.583636 239.274114 
L 121.090909 234.382377 
L 121.851818 223.858868 
L 122.866364 206.406082 
L 123.880909 189.044613 
L 124.641818 179.277151 
L 125.149091 174.918748 
L 125.656364 172.825446 
L 125.91 172.242483 
L 126.163636 172.165414 
L 126.417273 172.443065 
L 126.924545 174.020921 
L 127.685455 178.192993 
L 128.446364 183.924298 
L 130.475455 199.802429 
L 131.49 206.523817 
L 132.758182 213.207842 
L 133.772727 217.132861 
L 135.040909 220.717731 
L 135.548182 221.764702 
L 136.816364 223.865304 
L 137.07 224.020244 
L 137.323636 224.386595 
L 137.577273 224.520767 
L 138.084545 224.963436 
L 139.099091 225.639837 
L 140.367273 225.998029 
L 140.874545 226.066226 
L 141.635455 226.170019 
L 144.932727 225.688593 
L 145.693636 225.370772 
L 146.200909 225.297715 
L 150.512727 223.786749 
L 151.273636 223.429016 
L 152.288182 223.155894 
L 153.049091 222.823831 
L 154.063636 222.445166 
L 155.585455 221.792683 
L 155.839091 221.829834 
L 156.853636 221.297076 
L 157.107273 221.287839 
L 157.614545 221.09956 
L 158.629091 220.832841 
L 158.882727 220.593856 
L 159.136364 220.623349 
L 159.897273 220.362836 
L 163.448182 219.567503 
L 163.955455 219.431839 
L 166.238182 219.18955 
L 168.520909 219.064367 
L 168.774545 218.969581 
L 169.281818 219.051855 
L 169.789091 219.040588 
L 170.042727 219.09401 
L 170.55 219.036557 
L 171.057273 219.035089 
L 171.310909 219.131835 
L 172.071818 219.064762 
L 172.325455 219.157517 
L 173.086364 219.170428 
L 173.847273 219.215258 
L 180.441818 219.889927 
L 180.949091 219.982391 
L 188.811818 221.12048 
L 189.826364 221.375361 
L 190.08 221.3273 
L 190.333636 221.515311 
L 191.348182 221.62402 
L 191.855455 221.743647 
L 192.109091 221.736079 
L 192.362727 221.857585 
L 192.87 221.921466 
L 193.884545 222.134303 
L 194.391818 222.210531 
L 194.899091 222.354974 
L 195.66 222.498218 
L 198.196364 222.818592 
L 198.957273 222.81851 
L 200.732727 222.896978 
L 201.747273 222.899713 
L 202.254545 222.884556 
L 208.088182 222.263274 
L 208.849091 222.171798 
L 216.458182 220.997623 
L 217.219091 220.936571 
L 217.98 220.831289 
L 218.487273 220.804037 
L 219.501818 220.642446 
L 219.755455 220.703019 
L 220.262727 220.599016 
L 222.291818 220.417733 
L 223.052727 220.405207 
L 224.574545 220.304225 
L 225.335455 220.31315 
L 229.393636 220.20112 
L 230.915455 220.260851 
L 231.422727 220.271453 
L 232.944545 220.262264 
L 235.480909 220.391878 
L 241.314545 220.707049 
L 243.850909 220.888359 
L 244.358182 220.889766 
L 249.430909 221.096473 
L 250.191818 221.143515 
L 253.489091 221.280512 
L 253.996364 221.25897 
L 270.736364 221.144715 
L 273.272727 221.078571 
L 274.287273 221.075224 
L 274.794545 221.052058 
L 275.555455 221.043173 
L 276.57 221.019923 
L 278.091818 221.013475 
L 278.852727 221.009784 
L 284.94 220.977419 
L 299.397273 221.063152 
L 300.411818 221.018507 
L 300.919091 221.05165 
L 307.26 221.079589 
L 308.274545 221.051517 
L 309.035455 221.086018 
L 309.542727 221.081446 
L 311.064545 221.057479 
L 311.318182 221.076043 
L 311.318182 221.076043 
" clip-path="url(#p966780fa43)" style="fill: none; stroke-dasharray: 5.55,2.4; stroke-dashoffset: 0; stroke: #000000; stroke-width: 1.5"/>
   </g>
   <g id="patch_3">
    <path d="M 45 256.32 
L 45 34.56 
" style="fill: none; stroke: #000000; stroke-width: 0.8; stroke-linejoin: miter; stroke-linecap: square"/>
   </g>
   <g id="patch_4">
    <path d="M 324 256.32 
L 324 34.56 
" style="fill: none; stroke: #000000; stroke-width: 0.8; stroke-linejoin: miter; stroke-linecap: square"/>
   </g>
   <g id="patch_5">
    <path d="M 45 256.32 
L 324 256.32 
" style="fill: none; stroke: #000000; stroke-width: 0.8; stroke-linejoin: miter; stroke-linecap: square"/>
   </g>
   <g id="patch_6">
    <path d="M 45 34.56 
L 324 34.56 
" style="fill: none; stroke: #000000; stroke-width: 0.8; stroke-linejoin: miter; stroke-linecap: square"/>
   </g>
   <g id="legend_1">
    <g id="patch_7">
     <path d="M 218.720624 132.335841 
L 317 132.335841 
Q 319 132.335841 319 130.335841 
L 319 41.56 
Q 319 39.56 317 39.56 
L 218.720624 39.56 
Q 216.720624 39.56 216.720624 41.56 
L 216.720624 130.335841 
Q 216.720624 132.335841 218.720624 132.335841 
z
" style="fill: #ffffff; opacity: 0.8; stroke: #cccccc; stroke-linejoin: miter"/>
    </g>
    <g id="line2d_37">
     <path d="M 220.720624 47.53198 
L 230.720624 47.53198 
L 240.720624 47.53198 
" style="fill: none; stroke: #1f77b4; stroke-width: 1.5; stroke-linecap: square"/>
    </g>
    <g id="text_18">
     <!-- H-H (JAX-MD) -->
     <g transform="translate(248.720624 51.03198) scale(0.1 -0.1)">
      <defs>
       <path id="CMSS17-48" d="M 3674 4416 
L 3136 4416 
L 3136 2501 
L 1101 2501 
L 1101 4416 
L 563 4416 
L 563 0 
L 1101 0 
L 1101 2112 
L 3136 2112 
L 3136 0 
L 3674 0 
L 3674 4416 
z
" transform="scale(0.015625)"/>
       <path id="CMSS17-2d" d="M 1664 1216 
L 1664 1585 
L 64 1585 
L 64 1216 
L 1664 1216 
z
" transform="scale(0.015625)"/>
       <path id="CMSS17-28" d="M 1613 4768 
C 1267 4417 474 3601 474 1588 
C 474 -433 1267 -1243 1613 -1600 
L 2003 -1600 
C 1216 -784 960 357 960 1581 
C 960 2798 1203 3946 2003 4768 
L 1613 4768 
z
" transform="scale(0.015625)"/>
       <path id="CMSS17-4a" d="M 2336 4384 
L 1811 4384 
L 1811 940 
C 1811 636 1683 261 1107 261 
C 781 261 506 414 333 604 
L 250 140 
C 646 -71 1011 -128 1280 -128 
C 1901 -128 2336 228 2336 920 
L 2336 4384 
z
" transform="scale(0.015625)"/>
       <path id="CMSS17-41" d="M 2272 4416 
L 1722 4416 
L 166 0 
L 653 0 
L 1101 1280 
L 2816 1280 
L 3270 0 
L 3827 0 
L 2272 4416 
z
M 2694 1637 
L 1222 1637 
C 1530 2528 1914 3638 1958 3925 
L 1965 3925 
C 2010 3663 2138 3281 2246 2956 
L 2694 1637 
z
" transform="scale(0.015625)"/>
       <path id="CMSS17-58" d="M 2214 2329 
L 3661 4416 
L 3072 4416 
L 1952 2762 
L 800 4416 
L 166 4416 
L 1690 2329 
L 83 0 
L 672 0 
L 1952 1941 
L 3277 0 
L 3910 0 
L 2214 2329 
z
" transform="scale(0.015625)"/>
       <path id="CMSS17-4d" d="M 3194 2371 
L 2886 1473 
C 2835 1307 2662 791 2624 587 
L 2618 587 
C 2598 715 2560 849 2458 1174 
C 2400 1365 2336 1562 2272 1741 
L 1325 4416 
L 576 4416 
L 576 0 
L 1075 0 
L 1075 3900 
L 1082 3900 
C 1082 3894 1139 3613 1530 2499 
L 2374 96 
L 2848 96 
L 3610 2231 
C 3661 2378 3821 2843 3891 3066 
C 3955 3257 4115 3728 4154 3913 
L 4160 3913 
L 4160 0 
L 4666 0 
L 4666 4416 
L 3923 4416 
L 3194 2371 
z
" transform="scale(0.015625)"/>
       <path id="CMSS17-44" d="M 570 4416 
L 570 0 
L 2144 0 
C 3194 0 4000 980 4000 2170 
C 4000 3398 3194 4416 2144 4416 
L 570 4416 
z
M 1094 357 
L 1094 4059 
L 2003 4059 
C 2861 4059 3475 3277 3475 2170 
C 3475 1107 2867 357 2003 357 
L 1094 357 
z
" transform="scale(0.015625)"/>
       <path id="CMSS17-29" d="M 723 -1600 
C 1069 -1249 1862 -433 1862 1581 
C 1862 3601 1069 4411 723 4768 
L 333 4768 
C 1120 3952 1376 2811 1376 1588 
C 1376 370 1133 -778 333 -1600 
L 723 -1600 
z
" transform="scale(0.015625)"/>
      </defs>
      <use xlink:href="#CMSS17-48" transform="scale(0.996264)"/>
      <use xlink:href="#CMSS17-2d" transform="translate(66.061519 0) scale(0.996264)"/>
      <use xlink:href="#CMSS17-48" transform="translate(97.290632 0) scale(0.996264)"/>
      <use xlink:href="#CMSS17-28" transform="translate(194.581264 0) scale(0.996264)"/>
      <use xlink:href="#CMSS17-4a" transform="translate(231.015178 0) scale(0.996264)"/>
      <use xlink:href="#CMSS17-41" transform="translate(275.136254 0) scale(0.996264)"/>
      <use xlink:href="#CMSS17-58" transform="translate(337.354108 0) scale(0.996264)"/>
      <use xlink:href="#CMSS17-2d" transform="translate(399.571963 0) scale(0.996264)"/>
      <use xlink:href="#CMSS17-4d" transform="translate(430.801076 0) scale(0.996264)"/>
      <use xlink:href="#CMSS17-44" transform="translate(512.477106 0) scale(0.996264)"/>
      <use xlink:href="#CMSS17-29" transform="translate(580.019948 0) scale(0.996264)"/>
     </g>
    </g>
    <g id="line2d_38">
     <path d="M 220.720624 62.49462 
L 230.720624 62.49462 
L 240.720624 62.49462 
" style="fill: none; stroke-dasharray: 5.55,2.4; stroke-dashoffset: 0; stroke: #000000; stroke-width: 1.5"/>
    </g>
    <g id="text_19">
     <!-- H-H (reference) -->
     <g transform="translate(248.720624 65.99462) scale(0.1 -0.1)">
      <defs>
       <path id="CMSS17-72" d="M 954 1363 
C 954 1965 1395 2368 1958 2368 
L 1958 2789 
C 1549 2789 1165 2585 934 2253 
L 934 2758 
L 480 2758 
L 480 0 
L 954 0 
L 954 1363 
z
" transform="scale(0.015625)"/>
       <path id="CMSS17-65" d="M 2502 1377 
C 2502 1590 2490 2003 2285 2345 
C 2061 2713 1696 2816 1421 2816 
C 755 2816 192 2188 192 1375 
C 192 582 774 -64 1510 -64 
C 1798 -64 2150 19 2470 248 
C 2470 274 2458 414 2451 420 
C 2451 433 2432 630 2432 656 
C 2125 407 1773 325 1517 325 
C 1107 325 666 667 646 1377 
L 2502 1377 
z
M 698 1728 
C 781 2084 1062 2421 1421 2421 
C 1517 2421 1965 2421 2080 1728 
L 698 1728 
z
" transform="scale(0.015625)"/>
       <path id="CMSS17-66" d="M 1075 2368 
L 1722 2368 
L 1722 2737 
L 1062 2737 
L 1062 3559 
C 1062 4014 1408 4092 1606 4092 
C 1670 4092 1850 4092 2080 4009 
L 2080 4429 
C 1933 4461 1754 4480 1613 4480 
C 1018 4480 602 3993 602 3359 
L 602 2737 
L 160 2737 
L 160 2368 
L 602 2368 
L 602 0 
L 1075 0 
L 1075 2368 
z
" transform="scale(0.015625)"/>
       <path id="CMSS17-6e" d="M 2618 1877 
C 2618 2283 2522 2816 1798 2816 
C 1389 2816 1120 2606 941 2389 
L 941 2758 
L 474 2758 
L 474 0 
L 960 0 
L 960 1559 
C 960 1964 1114 2428 1549 2428 
C 2112 2428 2131 2048 2131 1829 
L 2131 0 
L 2618 0 
L 2618 1877 
z
" transform="scale(0.015625)"/>
       <path id="CMSS17-63" d="M 2464 2541 
C 2464 2585 2170 2714 2093 2739 
C 1882 2816 1613 2816 1542 2816 
C 710 2816 211 2093 211 1363 
C 211 595 768 -64 1517 -64 
C 1946 -64 2253 76 2502 242 
L 2464 664 
C 2189 453 1869 337 1523 337 
C 1024 337 698 774 698 1369 
C 698 1831 909 2414 1549 2414 
C 1901 2414 2099 2343 2394 2145 
L 2464 2541 
z
" transform="scale(0.015625)"/>
      </defs>
      <use xlink:href="#CMSS17-48" transform="scale(0.996264)"/>
      <use xlink:href="#CMSS17-2d" transform="translate(66.061519 0) scale(0.996264)"/>
      <use xlink:href="#CMSS17-48" transform="translate(97.290632 0) scale(0.996264)"/>
      <use xlink:href="#CMSS17-28" transform="translate(194.581264 0) scale(0.996264)"/>
      <use xlink:href="#CMSS17-72" transform="translate(231.015178 0) scale(0.996264)"/>
      <use xlink:href="#CMSS17-65" transform="translate(262.924951 0) scale(0.996264)"/>
      <use xlink:href="#CMSS17-66" transform="translate(304.563773 0) scale(0.996264)"/>
      <use xlink:href="#CMSS17-65" transform="translate(333.190432 0) scale(0.996264)"/>
      <use xlink:href="#CMSS17-72" transform="translate(374.829254 0) scale(0.996264)"/>
      <use xlink:href="#CMSS17-65" transform="translate(406.739026 0) scale(0.996264)"/>
      <use xlink:href="#CMSS17-6e" transform="translate(448.377848 0) scale(0.996264)"/>
      <use xlink:href="#CMSS17-63" transform="translate(496.582791 0) scale(0.996264)"/>
      <use xlink:href="#CMSS17-65" transform="translate(538.221613 0) scale(0.996264)"/>
      <use xlink:href="#CMSS17-29" transform="translate(579.860435 0) scale(0.996264)"/>
     </g>
    </g>
    <g id="line2d_39">
     <path d="M 220.720624 77.45726 
L 230.720624 77.45726 
L 240.720624 77.45726 
" style="fill: none; stroke: #ff7f0e; stroke-width: 1.5; stroke-linecap: square"/>
    </g>
    <g id="text_20">
     <!-- O-H (JAX-MD) -->
     <g transform="translate(248.720624 80.95726) scale(0.1 -0.1)">
      <defs>
       <path id="CMSS17-4f" d="M 4096 2178 
C 4096 3503 3219 4497 2214 4497 
C 1210 4497 333 3497 333 2178 
C 333 847 1222 -128 2214 -128 
C 3206 -128 4096 847 4096 2178 
z
M 2214 273 
C 1510 273 870 1057 870 2261 
C 870 3433 1549 4096 2214 4096 
C 2880 4096 3558 3433 3558 2261 
C 3558 1051 2912 273 2214 273 
z
" transform="scale(0.015625)"/>
      </defs>
      <use xlink:href="#CMSS17-4f" transform="scale(0.996264)"/>
      <use xlink:href="#CMSS17-2d" transform="translate(69.024255 0) scale(0.996264)"/>
      <use xlink:href="#CMSS17-48" transform="translate(100.253368 0) scale(0.996264)"/>
      <use xlink:href="#CMSS17-28" transform="translate(197.544 0) scale(0.996264)"/>
      <use xlink:href="#CMSS17-4a" transform="translate(233.977914 0) scale(0.996264)"/>
      <use xlink:href="#CMSS17-41" transform="translate(278.09899 0) scale(0.996264)"/>
      <use xlink:href="#CMSS17-58" transform="translate(340.316845 0) scale(0.996264)"/>
      <use xlink:href="#CMSS17-2d" transform="translate(402.5347 0) scale(0.996264)"/>
      <use xlink:href="#CMSS17-4d" transform="translate(433.763812 0) scale(0.996264)"/>
      <use xlink:href="#CMSS17-44" transform="translate(515.439842 0) scale(0.996264)"/>
      <use xlink:href="#CMSS17-29" transform="translate(582.982684 0) scale(0.996264)"/>
     </g>
    </g>
    <g id="line2d_40">
     <path d="M 220.720624 92.4199 
L 230.720624 92.4199 
L 240.720624 92.4199 
" style="fill: none; stroke-dasharray: 5.55,2.4; stroke-dashoffset: 0; stroke: #000000; stroke-width: 1.5"/>
    </g>
    <g id="text_21">
     <!-- O-H (reference) -->
     <g transform="translate(248.720624 95.9199) scale(0.1 -0.1)">
      <use xlink:href="#CMSS17-4f" transform="scale(0.996264)"/>
      <use xlink:href="#CMSS17-2d" transform="translate(69.024255 0) scale(0.996264)"/>
      <use xlink:href="#CMSS17-48" transform="translate(100.253368 0) scale(0.996264)"/>
      <use xlink:href="#CMSS17-28" transform="translate(197.544 0) scale(0.996264)"/>
      <use xlink:href="#CMSS17-72" transform="translate(233.977914 0) scale(0.996264)"/>
      <use xlink:href="#CMSS17-65" transform="translate(265.887687 0) scale(0.996264)"/>
      <use xlink:href="#CMSS17-66" transform="translate(307.526509 0) scale(0.996264)"/>
      <use xlink:href="#CMSS17-65" transform="translate(336.153168 0) scale(0.996264)"/>
      <use xlink:href="#CMSS17-72" transform="translate(377.79199 0) scale(0.996264)"/>
      <use xlink:href="#CMSS17-65" transform="translate(409.701762 0) scale(0.996264)"/>
      <use xlink:href="#CMSS17-6e" transform="translate(451.340584 0) scale(0.996264)"/>
      <use xlink:href="#CMSS17-63" transform="translate(499.545528 0) scale(0.996264)"/>
      <use xlink:href="#CMSS17-65" transform="translate(541.18435 0) scale(0.996264)"/>
      <use xlink:href="#CMSS17-29" transform="translate(582.823172 0) scale(0.996264)"/>
     </g>
    </g>
    <g id="line2d_41">
     <path d="M 220.720624 107.38254 
L 230.720624 107.38254 
L 240.720624 107.38254 
" style="fill: none; stroke: #2ca02c; stroke-width: 1.5; stroke-linecap: square"/>
    </g>
    <g id="text_22">
     <!-- O-O (JAX-MD) -->
     <g transform="translate(248.720624 110.88254) scale(0.1 -0.1)">
      <use xlink:href="#CMSS17-4f" transform="scale(0.996264)"/>
      <use xlink:href="#CMSS17-2d" transform="translate(69.024255 0) scale(0.996264)"/>
      <use xlink:href="#CMSS17-4f" transform="translate(100.253368 0) scale(0.996264)"/>
      <use xlink:href="#CMSS17-28" transform="translate(200.506736 0) scale(0.996264)"/>
      <use xlink:href="#CMSS17-4a" transform="translate(236.94065 0) scale(0.996264)"/>
      <use xlink:href="#CMSS17-41" transform="translate(281.061726 0) scale(0.996264)"/>
      <use xlink:href="#CMSS17-58" transform="translate(343.279581 0) scale(0.996264)"/>
      <use xlink:href="#CMSS17-2d" transform="translate(405.497436 0) scale(0.996264)"/>
      <use xlink:href="#CMSS17-4d" transform="translate(436.726549 0) scale(0.996264)"/>
      <use xlink:href="#CMSS17-44" transform="translate(518.402578 0) scale(0.996264)"/>
      <use xlink:href="#CMSS17-29" transform="translate(585.94542 0) scale(0.996264)"/>
     </g>
    </g>
    <g id="line2d_42">
     <path d="M 220.720624 122.345181 
L 230.720624 122.345181 
L 240.720624 122.345181 
" style="fill: none; stroke-dasharray: 5.55,2.4; stroke-dashoffset: 0; stroke: #000000; stroke-width: 1.5"/>
    </g>
    <g id="text_23">
     <!-- O-O (reference) -->
     <g transform="translate(248.720624 125.845181) scale(0.1 -0.1)">
      <use xlink:href="#CMSS17-4f" transform="scale(0.996264)"/>
      <use xlink:href="#CMSS17-2d" transform="translate(69.024255 0) scale(0.996264)"/>
      <use xlink:href="#CMSS17-4f" transform="translate(100.253368 0) scale(0.996264)"/>
      <use xlink:href="#CMSS17-28" transform="translate(200.506736 0) scale(0.996264)"/>
      <use xlink:href="#CMSS17-72" transform="translate(236.94065 0) scale(0.996264)"/>
      <use xlink:href="#CMSS17-65" transform="translate(268.850423 0) scale(0.996264)"/>
      <use xlink:href="#CMSS17-66" transform="translate(310.489245 0) scale(0.996264)"/>
      <use xlink:href="#CMSS17-65" transform="translate(339.115904 0) scale(0.996264)"/>
      <use xlink:href="#CMSS17-72" transform="translate(380.754726 0) scale(0.996264)"/>
      <use xlink:href="#CMSS17-65" transform="translate(412.664498 0) scale(0.996264)"/>
      <use xlink:href="#CMSS17-6e" transform="translate(454.303321 0) scale(0.996264)"/>
      <use xlink:href="#CMSS17-63" transform="translate(502.508264 0) scale(0.996264)"/>
      <use xlink:href="#CMSS17-65" transform="translate(544.147086 0) scale(0.996264)"/>
      <use xlink:href="#CMSS17-29" transform="translate(585.785908 0) scale(0.996264)"/>
     </g>
    </g>
   </g>
  </g>
 </g>
 <defs>
  <clipPath id="p966780fa43">
   <rect x="45" y="34.56" width="279" height="221.76"/>
  </clipPath>
 </defs>
</svg>
